<?xml version="1.0" encoding="UTF-8" standalone="no"?>
<!-- Created with Inkscape (http://www.inkscape.org/) -->

<svg
   version="1.1"
   id="svg1331"
   width="8.0620213in"
   height="8.1476507in"
   viewBox="0 0 773.95406 782.17449"
   sodipodi:docname="T-Shirt 2023 (20x) monochrome.svg"
   inkscape:version="1.1.2 (b8e25be8, 2022-02-05)"
   xmlns:inkscape="http://www.inkscape.org/namespaces/inkscape"
   xmlns:sodipodi="http://sodipodi.sourceforge.net/DTD/sodipodi-0.dtd"
   xmlns="http://www.w3.org/2000/svg"
   xmlns:svg="http://www.w3.org/2000/svg"
   xmlns:inkstitch="http://inkstitch.org/namespace">
  <metadata
     id="metadata29857">
    <inkstitch:collapse_len_mm />
    <inkstitch:thread-palette />
    <inkstitch:operator-notes-block1>&quot;PF900&quot;</inkstitch:operator-notes-block1>
    <inkstitch:operator-notes-block2>&quot;PF307&quot;</inkstitch:operator-notes-block2>
    <inkstitch:operator-notes-block3>&quot;PF801&quot;</inkstitch:operator-notes-block3>
    <inkstitch:operator-notes-block4>&quot;PF502&quot;</inkstitch:operator-notes-block4>
    <inkstitch:operator-notes-block5>&quot;PF502&quot;</inkstitch:operator-notes-block5>
    <inkstitch:operator-notes-block6>&quot;PF502&quot;</inkstitch:operator-notes-block6>
    <inkstitch:operator-notes-block7>&quot;PF702&quot;</inkstitch:operator-notes-block7>
    <inkstitch:operator-notes-block8>&quot;PF236 (substitute for 2011)&quot;</inkstitch:operator-notes-block8>
    <inkstitch:operator-notes-block9>&quot;PF801&quot;</inkstitch:operator-notes-block9>
    <inkstitch:operator-notes-block10>&quot;PF502&quot;</inkstitch:operator-notes-block10>
    <inkstitch:operator-notes-block11>&quot;PF900&quot;</inkstitch:operator-notes-block11>
    <inkstitch:title>&quot;SCaLE 19x Core Team Shirt&quot;</inkstitch:title>
    <inkstitch:client-name>&quot;SCaLE Tech&quot;</inkstitch:client-name>
    <inkstitch:purchase-order>&quot;20220101&quot;</inkstitch:purchase-order>
  </metadata>
  <defs
     id="defs1335">
    <inkscape:path-effect
       effect="bspline"
       id="path-effect2770"
       is_visible="true"
       lpeversion="1"
       weight="33.333333"
       steps="2"
       helper_size="0"
       apply_no_weight="true"
       apply_with_weight="true"
       only_selected="false" />
  </defs>
  <sodipodi:namedview
     id="namedview1333"
     pagecolor="#66ff00"
     bordercolor="#666666"
     borderopacity="1.0"
     inkscape:pageshadow="2"
     inkscape:pageopacity="0"
     inkscape:pagecheckerboard="false"
     showgrid="false"
     inkscape:zoom="1.3207399"
     inkscape:cx="398.6402"
     inkscape:cy="390.31153"
     inkscape:window-width="2056"
     inkscape:window-height="1229"
     inkscape:window-x="4086"
     inkscape:window-y="158"
     inkscape:window-maximized="0"
     inkscape:current-layer="layer2"
     units="in"
     inkscape:document-units="in" />
  <g
     inkscape:groupmode="layer"
     id="layer19"
     inkscape:label="Black Embroidery"
     style="display:inline">
    <g
       inkscape:groupmode="layer"
       id="layer3"
       inkscape:label="Black"
       style="display:inline"
       transform="translate(50.977,-88.9127)">
      <path
         style="display:inline;fill:#000000"
         d="m 328.19813,351.61609 c -2.34516,-2.98139 -3.62091,-9.88755 -2.64623,-14.3252 1.46913,-6.68892 10.45958,-9.54301 14.37619,-4.56384 1.69258,2.15177 4.74793,12.2761 3.91748,12.98112 -0.14891,0.12641 -1.20616,0.51661 -2.34946,0.8671 -1.8267,0.55999 -2.02746,0.288 -1.65591,-2.24349 0.50026,-3.40852 -2.19149,-9.14531 -4.29105,-9.14531 -1.99282,0 -1.8789,2.63077 0.1476,3.40841 1.17775,0.45195 1.46644,1.39981 1.05417,3.46116 -0.31227,1.56132 -0.12541,3.28111 0.41524,3.82176 2.14192,2.14192 -2.27645,8.30867 -5.95301,8.30867 -0.54624,0 -1.903,-1.15667 -3.01502,-2.57038 z"
         id="path3291"
         inkstitch:row_spacing_mm="0.22"
         inkstitch:fill_underlay_angle="30"
         inkstitch:fill_underlay_inset_mm="0.2"
         inkstitch:fill_underlay_max_stitch_length_mm="1.5"
         inkstitch:fill_underlay_row_spacing_mm="5"
         inkstitch:fill_underlay_skip_last="False"
         inkstitch:underlay_underpath="False" />
      <path
         style="display:inline;fill:#000000"
         d="m 315.15857,619.43178 c -1.65162,-2.05992 -8.16646,-11.84531 -14.47741,-21.74531 -6.31096,-9.9 -14.54163,-21.78367 -18.2904,-26.40815 -11.91682,-14.70062 -24.72382,-24.09185 -32.85452,-24.09185 -1.20027,0 -3.77388,1.08006 -5.71912,2.40014 l -3.5368,2.40014 -0.63396,-5.15014 c -0.6481,-5.26496 0.51154,-13.78618 2.60612,-19.15014 0.64431,-1.65 3.11805,-6.41945 5.4972,-10.59877 2.37915,-4.17932 7.64127,-16.55432 11.69359,-27.5 11.29509,-30.50904 13.66576,-35.02072 27.00594,-51.39554 7.70407,-9.45662 19.762,-27.3519 23.74099,-35.23425 l 3.16418,-6.26819 -1.18876,-15.47044 c -0.65382,-8.50875 -1.45588,-23.58448 -1.78235,-33.50163 -0.55959,-16.99846 -0.46964,-18.31755 1.57048,-23.03118 3.7412,-8.64387 14.3472,-14.08933 38.62108,-19.82927 17.59056,-4.15956 26.76443,-4.96252 49.93818,-4.37092 14.91792,0.38084 23.53078,1.07188 29.52563,2.36894 l 8.46381,1.83125 1.39709,4.5 c 0.85693,2.76014 1.69621,12.42601 2.17072,25 0.86057,22.80395 2.78632,34.50345 8.50332,51.66013 5.9558,17.87331 13.34838,30.20831 27.47262,45.83987 10.44615,11.56095 16.31823,20.28209 23.56606,35 12.231,24.83706 19.49955,51.51953 19.4188,71.28546 -0.0568,13.91723 -1.95254,20.00949 -6.95623,22.35561 -1.925,0.90259 -5.3,4.01798 -7.5,6.92309 -9.8734,13.03787 -15.74155,16.93396 -26.68456,17.71693 -5.85933,0.41924 -7.47266,0.13206 -12.17039,-2.16632 -4.81048,-2.35355 -5.80079,-3.40193 -8.86249,-9.3822 -1.89578,-3.70291 -4.27985,-9.28848 -5.29794,-12.41238 -1.64396,-5.04431 -1.69812,-6.14326 -0.48402,-9.82201 1.60554,-4.86483 4.68424,-7.56535 10.37995,-9.10486 5.61824,-1.51858 18.20418,-0.6189 23.11945,1.65265 2.2,1.01671 4.45,2.04402 5,2.2829 0.55,0.23888 -0.27045,-0.9214 -1.82322,-2.57841 -1.55277,-1.65701 -4.59027,-3.80957 -6.75,-4.78348 -4.427,-1.9963 -4.37919,-1.79829 -2.40678,-9.96698 3.6416,-15.08161 -0.36031,-42.46856 -8.5625,-58.59724 -4.72753,-9.29616 -17.55335,-25.90276 -20.00555,-25.90276 -0.4259,0 1.2785,3.0375 3.78755,6.75 9.13292,13.51345 17.61268,33.9432 20.25526,48.79968 1.39635,7.85028 0.89982,24.77843 -0.89688,30.57688 -1.63057,5.26229 -5.47493,8.65748 -10.68804,9.43923 -5.68734,0.85287 -8.98365,-1.17308 -10.27171,-6.31312 -0.51721,-2.06397 -1.18902,-10.05267 -1.4929,-17.75267 -0.30388,-7.7 -1.28075,-17.79174 -2.1708,-22.42608 -3.39309,-17.66707 -10.29523,-34.7385 -16.37898,-40.51101 -1.7025,-1.6154 -3.10489,-3.6404 -3.11643,-4.5 -0.0362,-2.693 -4.64527,-17.45301 -7.7011,-24.66163 -1.60905,-3.7957 -5.43084,-10.55922 -8.49287,-15.03003 -3.67335,-5.36341 -5.94455,-9.88772 -6.67618,-13.29922 -1.45052,-6.76354 -1.49537,-6.35521 1.39113,-12.66574 1.375,-3.00606 2.5,-6.10067 2.5,-6.87691 0,-0.77624 0.45,-1.68946 1,-2.02938 0.55,-0.33992 1,-2.13583 1,-3.99092 0,-3.38224 -0.27337,-3.68376 -7.50429,-8.27672 -3.73426,-2.37195 -14.83324,-7.30251 -19.92263,-8.85034 -9.21435,-2.80235 -9.57357,-3.05055 -9.5675,-6.61058 0.009,-5.44649 2.0186,-10.94947 5.13644,-14.06731 2.61865,-2.61865 3.46281,-2.89606 7.44631,-2.44706 7.26863,0.81928 11.44179,6.08797 11.6378,14.69293 0.0604,2.65351 -0.4953,6.28562 -1.23498,8.07137 -1.21044,2.92226 -1.15815,3.38335 0.52312,4.61272 2.66585,1.94932 6.1637,1.68794 8.48573,-0.63409 1.70246,-1.70246 2,-3.33333 2,-10.96249 0,-22.17571 -12.31133,-34.23958 -29.10305,-28.51806 -9.28839,3.16487 -13.61591,11.26067 -14.23245,22.90078 -0.21826,4.12078 0.0713,6.6714 0.0713,6.6714 0,0 -4.52049,-0.36923 -10.06932,-1.19451 l -7.41526,-1.10288 -0.60696,-5.16432 c -1.39653,-11.88227 -6.35462,-19.92216 -13.06165,-21.18041 -4.61803,-0.86635 -8.95483,1.60481 -11.94441,6.80606 -5.04667,8.78017 -5.30843,18.91941 -0.75424,29.21491 l 1.9043,4.30498 -2.17121,0.98927 c -4.35507,1.98431 -8.55288,6.37648 -9.15333,9.57716 -0.36941,1.96913 0.0455,4.95828 1.06734,7.68972 0.91942,2.45761 2.11444,6.71839 2.65562,9.46839 0.54117,2.75 1.9078,6.91194 3.03696,9.24876 1.83584,3.79934 1.93393,4.8571 0.92732,10 -0.64857,3.31359 -3.95499,11.34135 -7.80097,18.94023 -7.30829,14.43967 -8.66967,20.52577 -6.4026,28.62297 1.17591,4.19994 1.13189,4.35015 -2.4074,8.21415 -4.66364,5.09151 -13.34434,22.13264 -18.0703,35.47389 -3.58668,10.1251 -3.74492,11.14311 -4.43206,28.51209 -0.42316,10.69657 -1.19901,18.921 -1.91026,20.25 -4.52351,8.45225 -15.1704,-10.2637 -15.10987,-26.56131 0.0573,-15.42266 7.38538,-37.11098 17.04444,-50.44493 2.94045,-4.05918 3.71669,-7.15662 2.05141,-8.18582 -1.11828,-0.69114 -2.65076,1.19159 -3.60586,4.42997 -0.40552,1.375 -1.60158,3.44602 -2.65791,4.60226 -1.05632,1.15624 -2.99884,4.98124 -4.31672,8.5 -1.31788,3.51876 -3.82123,9.99774 -5.56299,14.39774 -8.54514,21.5865 -9.00957,35.97184 -1.66982,51.72042 2.69566,5.78395 13.38224,15.68156 40.94247,37.91974 11.32197,9.13563 20.42101,17.24221 21.33333,19.00645 2.92423,5.65482 1.494,15.06079 -2.83657,18.65484 -0.76595,0.63568 -3.02611,1.83829 -5.02259,2.67247 l -3.62995,1.51669 z"
         id="path3271"
         sodipodi:nodetypes="ssssscsssssscsssssscssssssssssssssssssssssssssssssssssssssscssssssssscscsssscsssssssssssssssssssssssscs"
         inkstitch:row_spacing_mm="0.22"
         inkstitch:fill_underlay_angle="30"
         inkstitch:fill_underlay_inset_mm="0.2"
         inkstitch:fill_underlay_max_stitch_length_mm="1.5"
         inkstitch:fill_underlay_row_spacing_mm="5"
         inkstitch:fill_underlay_skip_last="False"
         inkstitch:underlay_underpath="False" />
      <path
         style="display:inline;fill:#000000"
         d="m 428.57101,669.18225 c -3.43467,-3.79526 -8.51708,-4.31369 -41.21548,-4.20414 -31.23531,0.10466 -44.70412,1.10496 -51.15174,3.79894 -1.88982,0.78962 -3.6088,1.26292 -3.81994,1.05177 -0.54734,-0.54734 1.78104,-5.55542 4.43162,-9.5319 1.24265,-1.86425 2.25936,-4.66102 2.25936,-6.21505 0,-4.33829 -2.92238,-11.9929 -6.12652,-16.04724 -2.62097,-3.31643 -3.07522,-6.84816 -0.8808,-6.84816 0.88144,0 4.30151,1.76453 8.00732,4.13125 12.17033,7.77259 43.16677,6.93457 61.79153,-1.6706 9.43981,-4.36146 14.35975,-8.3206 19.20345,-15.45326 6.89005,-10.14605 9.52373,-9.09086 9.46612,3.79261 -0.0276,6.17915 -0.64663,10.43852 -2.1363,14.7 -5.07095,14.50644 -5.48414,20.272 -1.5757,21.98674 1.50816,0.66167 2.4331,2.14414 2.80761,4.5 0.30719,1.93229 0.76617,4.52576 1.01996,5.76326 0.56729,2.76618 0.23588,2.80534 -2.08049,0.24578 z"
         id="path3269"
         inkstitch:row_spacing_mm="0.22"
         inkstitch:fill_underlay_angle="30"
         inkstitch:fill_underlay_inset_mm="0.2"
         inkstitch:fill_underlay_max_stitch_length_mm="1.5"
         inkstitch:fill_underlay_row_spacing_mm="5"
         inkstitch:fill_underlay_skip_last="False"
         inkstitch:underlay_underpath="False" />
      <path
         id="path1361"
         style="display:inline;fill:#000000"
         d="m 399.55273,110.29102 c -54.60224,0.06 -107.5032,16.01482 -154,46.44531 -48.12101,31.49348 -86.31395,78.85118 -107.18164,132.90234 -20.3067,52.59811 -24.29832,111.47069 -11.33007,167.08789 8.32515,35.70432 27.2596,75.65881 50.02929,105.57032 12.88426,16.92545 36.1054,40.21563 52.22071,52.37304 41.85309,31.57403 90.3413,50.91208 141.76171,56.53906 12.56856,1.37539 57.46735,0.50731 69.80274,-1.3496 12.62259,-1.90017 31.48916,-6.07941 39.06641,-8.65235 6.18536,-2.10032 5.49654,-1.99207 -9.86915,1.53906 -21.80113,5.01005 -31.73276,6.00477 -60,6.00977 -20.85328,0.004 -28.84391,-0.38025 -37.5,-1.80274 -34.2571,-5.62957 -60.43177,-14.10485 -87.42968,-28.30859 C 211.5017,599.91195 159.82948,528.81066 146.08203,447.32227 c -6.75344,-40.03124 -4.90633,-79.61598 5.48242,-117.52149 14.11969,-51.51864 44.2061,-98.77399 84.91211,-133.36719 12.65012,-10.75045 17.39835,-14.17689 35.07617,-25.3125 7.53062,-4.74369 24.99661,-13.67705 34,-17.39062 41.08413,-16.94575 82.39252,-23.32448 129,-19.91992 32.45429,2.3707 75.86038,15.34031 103.36133,30.88476 3.48188,1.96808 6.55629,3.57813 6.83399,3.57813 0.51209,0 22.88499,14.96321 29.30468,19.59961 6.07314,4.3861 22.57249,19.20513 29.16211,26.1914 13.94231,14.78156 24.1966,34.22812 31.69027,53.57683 6.53294,16.86811 10.72434,45.42293 11.0402,53.13216 0.58454,14.26708 0.74516,15.33276 1.47071,9.83398 0.44753,-3.39168 0.56082,-9.24168 0.25195,-13 -0.5477,-6.66452 -0.51041,-6.58696 1.54297,3.16602 1.68406,7.99878 2.12478,13.80232 2.20508,29 0.11407,21.58502 1.02385,18.72587 2.54296,-7.99805 0.96485,-16.97349 -1.90334,-43.94909 -6.87633,-65.24491 -2.53443,-10.85317 -6.67233,-21.36025 -11.5846,-31.36446 -7.52548,-15.3262 -10.11022,-24.6776 -27.16797,-43.42383 -53.42118,-58.70912 -128.3682,-91.53957 -208.77735,-91.45117 z"
         transform="translate(-50.977,88.9127)"
         sodipodi:nodetypes="sssssssssscssssssssssssassssssaass" />
    </g>
    <g
       inkscape:groupmode="layer"
       id="layer10"
       inkscape:label="ConBlack"
       style="display:inline"
       transform="translate(50.977,-88.9127)">
      <path
         style="display:inline;fill:#000000"
         d="m 407.14461,521.76074 c -3.56927,-3.79931 -7.59263,-5.25719 -15.11457,-5.47682 -5.59356,-0.16333 -6.95521,0.0894 -6.95521,1.29071 0,0.82159 -0.49821,1.80172 -1.10713,2.17805 -0.74503,0.46045 -0.88652,-0.0108 -0.43262,-1.44098 0.61361,-1.9333 0.30074,-2.12523 -3.46429,-2.12523 -3.67895,0 -3.97215,-0.16667 -2.63882,-1.5 1.62109,-1.62108 14.30237,-2.06403 24.39286,-0.85202 4.47312,0.53729 5.25091,0.94294 5.25616,2.74131 0.003,1.16089 0.6517,3.34821 1.4407,4.86071 1.76107,3.37596 1.53896,3.42826 -1.37708,0.32427 z"
         id="path3289"
         inkstitch:fill_underlay="False"
         inkstitch:row_spacing_mm="0.25"
         inkstitch:angle="160" />
      <path
         style="display:inline;fill:#000000;stroke:#000000"
         d="m 407.6131,556.0778 c -5.34243,-2.02872 -6.05595,-1.93111 0.16942,-1.55579 2.51623,0.1517 8.7599,0.48589 13.89971,0.62091 9.2383,0.24269 9.34749,0.0315 10.84168,-2.85798 1.4315,-2.76822 1.38441,-2.97755 -1.02486,-4.55616 -1.46681,-0.9611 -7.6611,-2.12208 -12.99905,-2.74504 -6.24052,-0.72829 -8.94361,-1.13555 -8.90197,-1.35129 0.0416,-0.21575 2.84824,-0.097 7.20251,0.0808 7.57354,0.30936 11.63435,1.2081 14.99596,3.1683 4.14822,2.41889 4.19371,2.50439 2.61454,4.91451 -0.88392,1.34903 -1.29959,2.76033 -0.9237,3.13621 1.25801,1.25801 4.06657,-1.33406 6.29627,-5.81095 1.88323,-3.78124 2.21486,-4.06236 2.25,-1.9074 0.047,2.88432 -2.18539,6.48824 -4.92849,7.9563 -1.02693,0.5496 -7.19136,1.21429 -13.69872,1.47709 -9.19916,0.3715 -7.83806,2.45141 -11.1748,1.18432 z"
         id="path3277"
         sodipodi:nodetypes="sssssssssssssssss"
         inkstitch:fill_underlay="False"
         inkstitch:row_spacing_mm="0.25"
         inkstitch:angle="160" />
      <path
         style="display:inline;fill:#000000"
         d="m 391.57016,546.57466 c -3.74334,-1.9865 -9.09866,-5.07495 -11.9007,-6.86323 -2.80205,-1.78828 -7.45713,-4.44554 -10.34463,-5.90503 -2.8875,-1.45949 -5.25,-3.09604 -5.25,-3.63678 0,-1.19992 22.17109,-1.11969 26.5,0.0959 2.07202,0.58184 0.37073,0.75082 -5.5,0.54628 -4.675,-0.16287 -9.53854,-0.0327 -10.80786,0.28927 -2.05316,0.52079 -1.56035,1.08203 4.46545,5.0854 3.72532,2.475 7.14718,4.65694 7.60412,4.84875 0.45694,0.19182 3.10521,1.87932 5.88503,3.75 4.43035,2.9814 5.87505,3.41206 11.70375,3.48886 3.65723,0.0482 8.89951,0.43805 11.64951,0.86638 4.15675,0.64744 3.12811,0.80132 -6.0993,0.9124 -10.93964,0.13169 -11.19719,0.0817 -17.90537,-3.4782 z"
         id="path3279"
         inkstitch:fill_underlay="False"
         inkstitch:row_spacing_mm="0.25"
         inkstitch:angle="160" />
      <path
         style="display:inline;fill:#000000"
         d="m 435.57483,544.42999 c -2.36136,-0.40924 -2.764,-0.58069 -17,-7.23899 -12.70028,-5.94004 -19.88167,-9.9562 -19.13608,-10.70178 0.28651,-0.28651 1.85704,0.43046 3.49005,1.59327 6.74479,4.80271 32.51373,15.61279 34.41562,14.43737 0.62348,-0.38534 2.90774,-0.59593 5.07613,-0.46799 3.12467,0.18437 4.56704,-0.34801 6.95306,-2.56639 3.08501,-2.86824 2.82443,-1.3859 -0.38691,2.20099 -1.30154,1.45375 -2.96795,1.97314 -6.10123,1.90165 -2.37085,-0.0541 -4.53564,0.19119 -4.81064,0.54507 -0.275,0.35388 -1.4,0.48744 -2.5,0.2968 z"
         id="path3281"
         inkstitch:fill_underlay="False"
         inkstitch:row_spacing_mm="0.25"
         inkstitch:angle="160" />
      <path
         style="display:inline;fill:#000000;stroke:#000000"
         d="m 442.07483,538.29776 c 0,-0.48879 -1.6875,-1.18732 -3.75,-1.5523 -5.38492,-0.95289 -15.93477,-5.10297 -21.75,-8.55596 -6.68076,-3.96693 -5.27338,-3.7748 3.6403,0.49697 6.29008,3.01444 8.41705,3.52395 15.33149,3.6726 l 8.02821,0.1726 -6.5,0.5774 -6.5,0.5774 5.5,1.33539 c 8.67148,2.10542 9.06218,2.25498 8.4555,3.23661 -0.73061,1.18215 -2.4555,1.20975 -2.4555,0.0393 z"
         id="path3283"
         inkstitch:fill_underlay="False"
         inkstitch:row_spacing_mm="0.25"
         inkstitch:angle="160" />
      <path
         style="fill:#000000;fill-opacity:1;stroke:#fafbfb;stroke-width:0.0360023;stroke-miterlimit:4;stroke-dasharray:none;stroke-opacity:1"
         d="m 378.89174,516.10401 c -0.64038,-0.11255 -1.11364,0.26793 -1.62678,0.50593 -0.065,0.69738 1.10868,0.60678 1.48896,1.03753 0.4182,0.20003 1.28762,0.91859 0.39765,1.12859 -2.32244,0.75157 -4.97058,0.12828 -7.18464,1.24566 -0.60991,0.30666 -0.31155,0.99194 0.27347,1.07153 0.35747,0.0781 1.1832,0.64531 0.51865,0.91247 -2.24364,1.01556 -4.6672,1.59116 -6.94415,2.44105 0.70278,0.65503 2.18654,0.38266 3.19503,0.66883 0.93937,0.18358 2.21254,0.18498 2.97528,0.46855 -2.06146,0.57336 -4.29339,0.53387 -6.33837,1.09096 0.52798,0.68561 2.05866,0.0783 2.96773,0.26088 1.89363,0.0811 3.96469,-0.0923 5.37497,-1.52277 3.14555,-2.81896 6.01092,-5.93472 9.03473,-8.88203 -0.29284,-0.75358 -1.9049,-0.20382 -2.72649,-0.41393 -0.46854,-0.0128 -0.93733,-0.0209 -1.40604,-0.0132 z"
         id="path94043" />
    </g>
    <g
       inkscape:groupmode="layer"
       id="layer5"
       inkscape:label="Annual Text"
       transform="translate(50.977,-88.9127)"
       style="display:inline">
      <ellipse
         style="display:none;fill:#000000;fill-opacity:1;stroke:#00ffff;stroke-width:0.370156"
         id="ellipse18783"
         cx="-92.133385"
         cy="572.7077"
         rx="290.9606"
         ry="284.6283"
         transform="matrix(0.69509686,-0.7189161,0.71946209,0.69453171,0,0)" />
      <g
         aria-label="SCaLE 19x"
         transform="rotate(-90.43555,352.78318,461.57032)"
         id="text16234"
         style="font-size:96px;line-height:1.25;font-family:OCR-A;-inkscape-font-specification:'OCR-A, Normal';display:inline;fill:#000000"
         inkscape:transform-center-x="67.319584"
         inkscape:transform-center-y="-392.83932">
        <path
           d="m 628.19998,256.22088 q -0.61871,-0.73403 -0.88194,-1.64214 -0.20136,-0.83471 -0.32931,-1.73129 l 3.08803,-8.2528 -16.6433,-19.74537 q -0.5799,-0.39008 -1.25627,-0.44774 -0.71096,0.34816 -1.63792,1.63171 l -11.10057,56.69038 q -0.80212,3.81494 -4.03185,6.53727 -0.58722,0.49496 -1.51839,1.02874 -0.7959,0.54531 -1.29819,0.84313 -3.48563,0.92917 -7.03003,0.15012 -3.54439,-0.77906 -5.70988,-3.34816 -0.37123,-0.44041 -0.96687,-1.44499 l -16.76704,-19.89217 q -2.23578,-4.14205 -1.51128,-8.6449 0.85977,-4.49131 4.38311,-7.46112 0.80743,-0.68058 1.30972,-0.9784 2.94454,-0.9753 5.54623,0.47281 0.98993,1.17444 1.58979,2.92879 -1.40929,2.94564 -2.34357,5.11423 -0.86088,2.10673 -0.75178,4.02362 l 16.58143,19.67197 q 0.24748,0.29361 1.03606,0.63335 l 1.24785,-1.05181 12.46374,-59.09492 q 1.42082,-3.08092 3.76971,-5.06079 2.78931,-2.3511 6.09354,-2.7507 3.36611,-0.3262 6.86859,1.74372 l 18.49943,21.94745 q 0.73092,1.01611 1.48911,2.51144 0.8316,1.43346 1.30351,2.29123 0.64708,3.59785 -0.46439,7.04578 -1.0496,3.52133 -3.6921,5.74868 -1.76167,1.48491 -4.06864,2.17391 -1.34121,-0.25059 -2.05639,-0.6522 -0.6533,-0.32821 -1.21014,-0.98883 z"
           id="path21194"
           style="display:inline;fill:#000000"
           inkstitch:row_spacing_mm="0.22"
           inkstitch:fill_underlay_angle="30"
           inkstitch:fill_underlay_inset_mm="2"
           inkstitch:fill_underlay_max_stitch_length_mm="1.5"
           inkstitch:fill_underlay_row_spacing_mm=""
           inkstitch:fill_underlay_skip_last="True" />
        <path
           d="m 619.84649,336.96328 q 0.39939,1.74839 -0.28767,3.10188 -0.55696,1.3923 -1.82375,2.07702 -3.20921,1.73461 -5.91845,-1.05693 l -11.32061,-20.94433 q -1.27814,-2.36468 -0.84669,-4.99865 0.43146,-2.63397 2.07262,-5.0488 l 16.54172,-24.10946 q 2.50397,-3.64507 5.45982,-5.24273 2.28023,-1.23249 6.13535,-1.5702 l 27.52677,-1.56513 q 3.98522,-0.29891 6.27454,0.10058 2.33496,0.48394 3.65874,2.93308 l 12.54626,23.00999 q 0.63906,1.18235 -0.22374,2.41258 -0.81716,1.31469 -2.59067,2.27329 -1.85797,1.00425 -3.66569,0.89008 -1.67762,-0.0754 -2.07017,-1.6092 l -11.22932,-20.77541 q -11.10429,0.6548 -19.93294,1.27999 -8.7442,0.57955 -9.67319,1.08167 -1.28732,0.041 -2.30075,0.58882 -0.76008,0.41083 -1.49963,1.46532 l -17.65104,25.6912 z"
           id="path21196"
           inkstitch:row_spacing_mm="0.22"
           inkstitch:fill_underlay_angle="30"
           inkstitch:fill_underlay_inset_mm="2"
           inkstitch:fill_underlay_max_stitch_length_mm="1.5"
           inkstitch:fill_underlay_row_spacing_mm=""
           inkstitch:fill_underlay_skip_last="True"
           style="fill:#000000" />
        <path
           d="m 633.65352,394.98612 q -1.20197,0.66673 -3.22643,0.27921 -0.29545,-0.31148 -0.79453,-0.9624 -0.49907,-0.65092 -0.61084,-1.01829 -0.35135,-0.49518 -0.46312,-0.86255 -0.25148,-0.82659 -0.0197,-2.70331 l 2.58786,-3.69735 q -4.0528,-1.77729 -5.69364,-5.19153 l -6.09155,-20.02184 q -0.55063,-4.44833 1.67787,-8.33738 2.2285,-3.88904 6.37748,-5.75342 l 9.36802,-2.85018 q 1.65318,-0.50297 3.1426,-0.55474 1.60921,0.0121 3.7894,0.25192 2.12821,1.05836 3.50175,1.94496 1.37353,0.88659 2.54735,2.43601 l 8.8579,29.11433 7.89852,-2.40309 q 1.3378,-1.20978 1.95687,-2.80295 0.61908,-1.59318 0.14405,-3.15452 l -5.78418,-19.01156 q 0.0481,-1.82084 1.23815,-3.18636 1.21801,-1.27368 2.96303,-1.80459 1.28581,-0.3912 2.40785,-0.3312 1.7968,0.9585 2.90672,2.62771 l 6.87395,22.59346 q -0.0284,4.52415 -2.43255,8.16561 -2.31233,3.61351 -6.47733,6.08483 z m 6.82522,-11.20792 6.24534,-1.90011 q 1.54141,-0.87035 2.32814,-1.91247 0.57511,-1.07807 0.74298,-2.83501 l -6.37098,-20.94028 q -1.92438,-3.02693 -4.89521,-3.22686 l -5.96981,1.81629 q -1.65318,0.50297 -2.35608,1.82062 -0.70291,1.31765 -0.72305,3.23033 l 6.45481,21.2158 q 1.51714,2.34807 4.54386,2.73169 z"
           id="path21198"
           inkstitch:row_spacing_mm="0.22"
           inkstitch:fill_underlay_angle="30"
           inkstitch:fill_underlay_inset_mm="2"
           inkstitch:fill_underlay_max_stitch_length_mm="1.5"
           inkstitch:fill_underlay_row_spacing_mm=""
           inkstitch:fill_underlay_skip_last="True"
           style="fill:#000000" />
        <path
           d="m 636.44628,449.64935 -4.44574,-44.61103 75.56172,-7.53014 q 1.24185,-0.12375 1.92925,0.96545 0.69692,1.18473 1.05933,2.88517 0.45793,1.69093 -0.13493,3.48657 -0.48781,1.88164 -1.92071,2.02444 l -64.95824,6.47344 3.53183,35.44046 q -0.0867,2.03462 -1.69191,3.3523 -1.5002,1.40368 -3.41073,1.59408 -2.10159,0.20943 -3.75378,-0.8801 -1.54714,-1.00353 -1.76609,-3.20064 z"
           id="path21200"
           inkstitch:row_spacing_mm="0.22"
           inkstitch:fill_underlay_angle="30"
           inkstitch:fill_underlay_inset_mm="2"
           inkstitch:fill_underlay_max_stitch_length_mm="1.5"
           inkstitch:fill_underlay_row_spacing_mm=""
           inkstitch:fill_underlay_skip_last="True"
           style="fill:#000000" />
        <path
           d="m 700.02403,512.54213 3.28835,-33.53516 -24.07653,-2.36087 -1.39591,14.23572 q -0.39719,2.08319 -2.04765,3.17533 -1.56428,1.19706 -3.37958,1.01906 -1.52867,-0.1499 -2.67702,-1.22711 -1.15773,-0.98166 -1.3619,-2.83443 l 1.49897,-15.28669 -24.17207,-2.37023 -3.35393,34.20396 q -0.56954,1.87336 -2.40171,2.85123 -1.746,1.08277 -3.65684,0.8954 -1.71975,-0.16863 -2.86811,-1.24584 -1.06218,-0.9723 -1.07527,-2.80633 l 4.36573,-44.52246 77.77101,7.62597 -4.11278,41.94284 q -0.21548,2.19746 -2.15256,3.2615 -1.94645,1.15958 -4.43054,0.916 -1.81529,-0.178 -2.87748,-1.1503 -1.06218,-0.9723 -0.88418,-2.78759 z"
           id="path21202"
           inkstitch:row_spacing_mm="0.22"
           inkstitch:fill_underlay_angle="30"
           inkstitch:fill_underlay_inset_mm="2"
           inkstitch:fill_underlay_max_stitch_length_mm="1.5"
           inkstitch:fill_underlay_row_spacing_mm=""
           inkstitch:fill_underlay_skip_last="True"
           style="fill:#000000" />
        <path
           d="m 517.13793,699.00966 q -0.4191,-0.77956 -0.57738,-1.4038 -0.15827,-0.62423 -0.18409,-2.12358 0.39033,-1.60486 1.84392,-2.85923 2.03504,-1.75612 4.30693,-1.18059 l 23.35718,3.55615 0.0398,-25.52171 q 0.44309,-1.39679 1.46061,-2.27485 0.94484,-0.81534 2.19331,-1.13189 2.13649,0.56558 3.64174,2.3099 0.6899,0.79947 1.22449,1.85979 l 0.58735,26.24851 q 7.79335,1.39014 14.27256,2.13907 6.40653,0.81165 13.33178,1.04888 0.84522,0.53864 1.2315,0.83932 0.38627,0.30068 1.01346,1.02748 1.44253,1.67164 1.58383,3.45174 0.0686,1.84282 -1.53034,3.22263 -0.58144,0.50175 -1.83987,0.9537 -1.19571,0.52462 -2.57257,-0.18927 -12.05047,-0.88654 -24.70821,-2.77068 l 0.58734,26.24851 q -0.12949,1.76018 -0.95885,2.85628 -1.79708,1.29717 -4.02617,1.06511 -2.23906,-0.0967 -3.61887,-1.69562 -0.50175,-0.58143 -0.84818,-1.42371 l -0.52057,-28.08137 -26.49422,-4.39952 q -0.53163,-0.17525 -1.5023,-0.85925 -0.97066,-0.684 -1.29422,-0.912 z"
           id="path21208"
           inkstitch:row_spacing_mm="0.22"
           inkstitch:fill_underlay_angle="30"
           inkstitch:fill_underlay_inset_mm="2"
           inkstitch:fill_underlay_max_stitch_length_mm="1.5"
           inkstitch:fill_underlay_row_spacing_mm=""
           inkstitch:fill_underlay_skip_last="True"
           style="fill:#000000" />
        <text
           xml:space="preserve"
           style="font-style:normal;font-variant:normal;font-weight:normal;font-stretch:normal;font-size:106.667px;line-height:1.25;font-family:OCR-A;-inkscape-font-specification:'OCR-A, Normal';font-variant-ligatures:normal;font-variant-caps:normal;font-variant-numeric:normal;font-variant-east-asian:normal"
           x="136.39172"
           y="-825.49292"
           id="text9354"
           transform="rotate(122.83483)"><tspan
             sodipodi:role="line"
             id="tspan9352"
             x="136.39172"
             y="-825.49292">20</tspan></text>
      </g>
    </g>
    <g
       inkscape:groupmode="layer"
       id="layer6"
       inkscape:label="Fixed Text"
       transform="translate(50.977,-88.9127)"
       style="display:inline">
      <g
         aria-label="Tech Team"
         transform="rotate(7.5064625,414.90111,672.47966)"
         id="text13259"
         style="font-size:96px;line-height:1.25;font-family:OCR-A;-inkscape-font-specification:OCR-A;display:inline"
         inkscape:transform-center-x="9.3690681"
         inkscape:transform-center-y="317.72873">
        <path
           d="m 207.18264,787.31223 q -1.20404,1.11416 -2.57818,1.28351 -1.24526,0.12664 -2.61791,-0.56266 -2.74529,-1.3786 -3.29791,-4.55657 l 2.62795,-5.23322 -9.09379,-4.56661 -28.21821,56.19277 q -0.51623,0.60016 -0.98901,0.89987 -0.3439,0.25699 -1.5472,0.94183 -1.88888,-0.0891 -3.34732,-0.82152 -1.63002,-0.81854 -2.35756,-2.15071 -0.59867,-1.37488 -0.0802,-3.26302 l 28.13205,-56.02118 -8.66484,-4.35121 -2.80028,5.57638 q -2.75051,1.62668 -5.4958,0.24808 -1.37265,-0.6893 -2.10019,-2.02147 -0.72755,-1.33218 -0.46683,-3.13489 l 6.893,-13.72648 42.89524,21.54062 z"
           id="path22540"
           inkstitch:row_spacing_mm="0.22"
           inkstitch:fill_underlay_angle="30"
           inkstitch:fill_underlay_inset_mm="2"
           inkstitch:fill_underlay_max_stitch_length_mm="1.5"
           inkstitch:fill_underlay_row_spacing_mm=""
           inkstitch:fill_underlay_skip_last="True"
           style="fill:#000000" />
        <path
           d="m 239.44134,836.99728 q -1.72897,0.94372 -2.97304,1.34026 -1.24407,0.39654 -2.61087,-0.0568 l -31.98295,-10.60711 -1.78297,5.37605 q 0.3677,2.24593 1.7368,4.21712 1.46021,2.0014 3.49598,3.18227 l 26.88027,8.91481 q 2.58387,2.27293 1.61684,5.18875 -0.96703,2.91583 -4.39613,3.80141 l -30.98065,-10.2747 q -4.61917,-3.15022 -6.99519,-8.4896 -2.25467,-5.40029 -0.59259,-10.41186 l 7.85712,-23.69108 q 2.48308,-4.13244 7.33711,-6.26486 4.85403,-2.13241 10.4091,-2.41406 l 18.31503,6.07416 q 1.58017,1.02977 2.37049,1.69645 0.88143,0.69689 2.46206,2.03024 2.70798,4.0335 4.90083,8.70529 0.12364,1.45699 0.0357,3.55182 -0.0577,2.0037 -0.26783,3.55228 z m -7.84595,-8.97404 3.41483,-10.2965 q -2.01154,-5.21851 -7.20535,-6.94103 l -12.1189,-4.01922 q -0.7894,-0.0595 -2.15527,0.0943 -1.33565,0.0627 -2.06415,0.12456 -1.48629,0.82192 -2.1232,1.21754 -0.51558,0.33472 -1.39471,1.15571 l -3.23351,9.74979 z"
           id="path22542"
           inkstitch:row_spacing_mm="0.22"
           inkstitch:fill_underlay_angle="30"
           inkstitch:fill_underlay_inset_mm="2"
           inkstitch:fill_underlay_max_stitch_length_mm="1.5"
           inkstitch:fill_underlay_row_spacing_mm=""
           inkstitch:fill_underlay_skip_last="True"
           style="fill:#000000" />
        <path
           d="m 289.70877,862.25893 q -0.005,0.58392 -0.22117,1.81308 -0.24925,1.41826 -0.79363,2.2973 -0.44982,0.89566 -1.5615,1.675 l -2.50186,0.92491 -22.88132,-4.02131 q -1.73,-0.69393 -2.62566,-1.14375 -0.78449,-0.52776 -2.37009,-1.48872 L 244.601,844.38932 q -0.23729,-5.30515 0.61017,-10.12725 0.94717,-5.3894 3.45701,-10.79658 8.65963,-6.56822 17.33072,-12.64707 2.27953,-0.76903 4.31495,-0.70373 l 23.63773,4.15425 q 2.16436,1.55003 3.26175,4.17968 -0.3988,2.26922 -1.41477,4.72239 -2.69611,1.4756 -5.58249,1.26074 l -21.74671,-3.82191 -12.88517,7.87249 q -1.91046,3.66057 -2.42559,6.59165 -0.31572,1.79647 -0.37587,3.24796 0.0344,1.46812 0.40861,3.77572 l 9.45177,12.77285 23.63773,4.15424 q 2.28069,0.88818 3.42793,3.23418 z"
           id="path22544"
           inkstitch:row_spacing_mm="0.22"
           inkstitch:fill_underlay_angle="30"
           inkstitch:fill_underlay_inset_mm="2"
           inkstitch:fill_underlay_max_stitch_length_mm="1.5"
           inkstitch:fill_underlay_row_spacing_mm=""
           inkstitch:fill_underlay_skip_last="True"
           style="fill:#000000" />
        <path
           d="m 341.33644,869.40051 q -1.96584,1.67567 -4.07707,1.6188 -2.01527,-0.0543 -3.61049,-1.44174 -1.59263,-1.48343 -1.91445,-3.79693 l 0.97972,-36.37081 q -1.47599,-2.24856 -3.56137,-3.26508 -2.0828,-1.11249 -4.67386,-1.18228 -1.53545,-0.0414 -3.17461,0.20259 l -17.82013,9.12346 -0.85306,31.66851 q -0.44073,2.1009 -1.91639,3.40563 -1.47309,1.20878 -3.48836,1.15449 -1.24754,-0.0336 -2.38362,-0.64042 -1.39294,-1.76614 -2.20234,-3.80468 l 1.77331,-65.83212 q -0.25429,-1.2553 0.46917,-3.15651 0.59647,-0.75221 1.85953,-1.2944 1.35902,-0.5396 2.31609,-0.41778 3.5352,0.67143 4.98534,3.87964 l -0.67986,25.23885 q 4.77467,-2.56036 9.92545,-4.82248 5.24675,-2.25954 10.77105,-4.12747 l 3.74264,0.10082 q 1.70411,0.91022 3.53521,0.67144 l 4.45607,2.13676 q 2.3526,1.792 3.73004,4.13394 1.4734,2.34452 2.91579,5.84063 z"
           id="path22546"
           inkstitch:row_spacing_mm="0.22"
           inkstitch:fill_underlay_angle="30"
           inkstitch:fill_underlay_inset_mm="2"
           inkstitch:fill_underlay_max_stitch_length_mm="1.5"
           inkstitch:fill_underlay_row_spacing_mm=""
           inkstitch:fill_underlay_skip_last="True"
           style="fill:#000000" />
        <path
           d="m 435.17056,793.16184 q -0.16224,1.63241 -1.07838,2.67048 -0.84802,0.92065 -2.33251,1.31509 -2.96898,0.78889 -5.49022,-1.22313 l -1.50381,-5.65962 -9.83475,2.61318 16.14752,60.77131 q 0.0117,0.79155 -0.14342,1.32941 -0.087,0.42043 -0.53336,1.73102 -1.47283,1.186 -3.05011,1.60509 -1.76283,0.4684 -3.19085,-0.0461 -1.35989,-0.63197 -2.22407,-2.38897 l -16.09821,-60.58575 -9.37084,2.48992 1.60242,6.03074 q -0.97977,3.04161 -3.94875,3.83049 -1.48449,0.39444 -2.91252,-0.1201 -1.42802,-0.51454 -2.42845,-2.03667 l -3.94443,-14.8449 46.39031,-12.32635 z"
           id="path22548"
           inkstitch:row_spacing_mm="0.22"
           inkstitch:fill_underlay_angle="30"
           inkstitch:fill_underlay_inset_mm="2"
           inkstitch:fill_underlay_max_stitch_length_mm="1.5"
           inkstitch:fill_underlay_row_spacing_mm=""
           inkstitch:fill_underlay_skip_last="True"
           style="fill:#000000" />
        <path
           d="m 492.47698,809.153 q -0.67788,1.84943 -1.3519,2.96777 -0.67401,1.11833 -2.00056,1.67856 l -31.0413,13.10946 2.20358,5.21777 q 1.75713,1.44633 4.0861,2.02591 2.4174,0.54222 4.72663,0.088 l 26.08885,-11.01792 q 3.44129,0.006 4.63646,2.83558 1.19516,2.82997 -0.7994,5.75653 l -30.0685,12.69862 q -5.55004,0.67655 -10.85665,-1.7718 -5.25552,-2.57414 -7.3097,-7.43816 l -9.71072,-22.99356 q -0.85729,-4.74424 1.38671,-9.5477 2.244,-4.80346 6.23526,-8.67748 l 17.77579,-7.50712 q 1.86704,-0.26745 2.9008,-0.28719 1.1222,-0.0571 3.18973,-0.0966 4.69528,1.24759 9.42405,3.31471 1.05351,1.01402 2.36845,2.6471 1.2776,1.54465 2.14049,2.84759 z m -11.81572,-1.57519 -4.22042,-9.99335 q -4.95286,-2.59775 -9.99376,-0.46886 l -11.76209,4.9674 q -0.63279,0.47567 -1.55838,1.49182 -0.96293,0.92772 -1.46994,1.45448 -0.57571,1.59786 -0.7938,2.31523 -0.167,0.59158 -0.28678,1.78847 l 3.99633,9.46274 z"
           id="path22550"
           inkstitch:row_spacing_mm="0.22"
           inkstitch:fill_underlay_angle="30"
           inkstitch:fill_underlay_inset_mm="2"
           inkstitch:fill_underlay_max_stitch_length_mm="1.5"
           inkstitch:fill_underlay_row_spacing_mm=""
           inkstitch:fill_underlay_skip_last="True"
           style="fill:#000000" />
        <path
           d="m 546.07469,800.23781 q 0.93848,1.00426 1.0538,3.06224 -0.23048,0.36221 -0.74084,1.00432 -0.51035,0.64211 -0.83962,0.83969 -0.39512,0.461 -0.72439,0.65858 -0.74086,0.44455 -2.61773,0.67512 l -4.21481,-1.61331 q -0.74071,4.36295 -3.65472,6.78325 l -17.94522,10.76803 q -4.18176,1.61361 -8.49534,0.39544 -4.31358,-1.21816 -7.12903,-4.79072 l -5.03825,-8.39638 q -0.8891,-1.48172 -1.30075,-2.91406 -0.37873,-1.56405 -0.67516,-3.73727 0.5103,-2.32142 1.03708,-3.86905 0.52679,-1.54762 1.74506,-3.06234 l 26.09465,-15.6581 -4.24794,-7.0793 q -1.49825,-1.00424 -3.19404,-1.21821 -1.69578,-0.21397 -3.09518,0.62574 l -17.03972,10.22469 q -1.77808,0.3952 -3.39157,-0.42794 -1.53118,-0.87252 -2.46967,-2.43656 -0.69153,-1.15244 -0.9056,-2.25551 0.49384,-1.97569 1.84383,-3.45748 l 20.2501,-12.15108 q 4.39581,-1.07031 8.51183,0.37835 4.06663,1.36636 7.47477,4.80718 z m -12.52914,-3.90147 -3.35884,-5.59759 q -1.21837,-1.28414 -2.42025,-1.79448 -1.18541,-0.2963 -2.93057,-0.0328 l -18.76839,11.26198 q -2.46949,2.60138 -1.94253,5.53193 l 3.21065,5.35064 q 0.8891,1.48171 2.33793,1.84386 1.44884,0.36215 3.30924,-0.0824 l 19.01534,-11.41016 q 1.90973,-2.04159 1.54742,-5.07092 z"
           id="path22552"
           inkstitch:row_spacing_mm="0.22"
           inkstitch:fill_underlay_angle="30"
           inkstitch:fill_underlay_inset_mm="2"
           inkstitch:fill_underlay_max_stitch_length_mm="1.5"
           inkstitch:fill_underlay_row_spacing_mm=""
           inkstitch:fill_underlay_skip_last="True"
           style="fill:#000000" />
        <path
           d="m 593.84499,764.34886 q 0.0589,3.41795 -2.47247,5.47847 -1.1168,0.90905 -2.50891,1.17572 -1.45271,0.19222 -2.95739,-0.43975 l -24.90796,-30.60015 -1.59818,-1.05098 q -0.73589,-0.1437 -1.69513,-0.10559 -0.9454,-0.097 -1.35056,-0.1385 -0.91073,2.22671 -1.56519,4.61617 -0.71506,2.31501 -1.04745,5.55636 l 23.57469,28.96219 q 0.40693,2.02064 -0.15058,3.46471 -2.45695,1.99991 -3.96506,2.73235 -1.56872,0.65799 -3.59977,-0.16443 l -25.21098,-30.97241 q -2.38946,-0.65446 -4.72176,0.12994 -2.14696,4.96594 -2.13823,9.5388 l 22.96866,28.21766 q 0.27532,0.64237 0.42943,1.13584 0.0935,0.41902 0.16452,1.72283 -0.65966,1.77479 -1.77646,2.68384 -0.67007,0.54543 -1.85268,0.76535 -0.81033,-0.0831 -1.48561,-0.15235 -0.67529,-0.0693 -1.66743,-0.3757 l -31.15011,-38.2688 q -0.28573,-1.87174 0.0623,-3.26905 0.63717,-0.89 1.60506,-1.67784 2.01022,-1.63629 4.00837,-1.15843 l 2.36353,2.90366 2.24214,-7.89043 q 0.91593,-1.61203 1.95827,-2.46047 0.59562,-0.48483 1.11679,-0.90905 0.59563,-0.48483 1.73148,-0.91426 1.13584,-0.42943 2.70456,-1.08742 l 6.17104,1.04225 3.09226,-10.19159 q 5.13725,-4.18162 8.53615,-4.72018 3.3989,-0.53855 6.4273,1.20501 z"
           id="path22554"
           inkstitch:row_spacing_mm="0.22"
           inkstitch:fill_underlay_angle="30"
           inkstitch:fill_underlay_inset_mm="2"
           inkstitch:fill_underlay_max_stitch_length_mm="1.5"
           inkstitch:fill_underlay_row_spacing_mm=""
           inkstitch:fill_underlay_skip_last="True"
           style="fill:#000000" />
      </g>
      <ellipse
         style="display:none;fill:#ff0000;fill-opacity:1;stroke:#ff0000;stroke-width:0.00173516"
         id="ellipse18703"
         cx="-584.32837"
         cy="43.083893"
         rx="1.3639382"
         ry="1.3342179"
         transform="rotate(-120.77511)" />
    </g>
  </g>
  <g
     inkscape:groupmode="layer"
     id="layer16"
     inkscape:label="White Embroidery"
     style="display:inline">
    <g
       inkscape:groupmode="layer"
       id="layer15"
       inkscape:label="White"
       style="display:inline"
       transform="translate(50.977,-88.9127)">
      <g
         inkscape:groupmode="layer"
         id="layer20"
         inkscape:label="R.Foot"
         style="display:inline" />
      <g
         inkscape:groupmode="layer"
         id="layer21"
         inkscape:label="L. Foot"
         style="display:inline" />
      <g
         inkscape:groupmode="layer"
         id="layer22"
         inkscape:label="BodyEyes"
         style="display:inline" />
    </g>
    <g
       inkscape:groupmode="layer"
       id="layer4"
       inkscape:label="CableWhite"
       style="display:inline"
       transform="translate(50.977,-88.9127)">
      <path
         style="display:inline;fill:#000000;stroke:none;stroke-width:0.428954"
         d="m 506.50378,568.01192 c 0,-0.66328 4.33594,-5.18202 4.97239,-5.18202 0.32821,0 0.83967,-0.40211 1.13658,-0.89358 0.29691,-0.49147 1.27096,-1.27122 2.16456,-1.73277 0.8936,-0.46156 2.14829,-1.58567 2.7882,-2.49802 0.84712,-1.20779 1.46057,-1.65264 2.25613,-1.63606 1.38482,0.0289 7.94056,-2.83695 13.43601,-5.87349 5.38885,-2.97763 9.26599,-5.95626 15.49208,-11.90184 2.73324,-2.6101 5.04191,-4.67206 5.13037,-4.58215 0.2525,0.25665 -5.7931,7.39923 -10.77576,12.73103 -10.03163,10.73456 -17.64758,15.76535 -30.26379,19.99102 -6.48926,2.17351 -6.33677,2.13554 -6.33677,1.57788 z"
         id="path5231"
         inkstitch:row_spacing_mm="0.22"
         inkstitch:fill_underlay_angle="160" />
    </g>
  </g>
  <g
     inkscape:groupmode="layer"
     id="layer17"
     inkscape:label="Blue Embroidery"
     style="display:inline">
    <g
       inkscape:groupmode="layer"
       id="layer2"
       inkscape:label="Blue"
       style="display:inline"
       transform="translate(50.977,-88.9127)">
      <path
         style="display:inline;fill:#000000;stroke:none"
         d="m 336.74821,654.82018 c -0.7445,-5.43169 -5.66381,-16.15368 -10.06229,-21.93149 -1.75947,-2.31122 -3.52742,-4.73901 -3.92877,-5.39508 -0.94188,-1.53966 10.77772,1.66686 18.33558,5.01669 5.30861,2.3529 23.80464,6.67617 28.56233,6.67617 1.26595,0 2.62329,0.52029 3.01631,1.1562 0.53116,0.85944 -1.69958,1.00055 -8.69098,0.54976 -9.48521,-0.61159 -21.81125,-3.55707 -24.79191,-5.92437 -2.28233,-1.81267 -5.92335,-3.78159 -6.99309,-3.78159 -2.31122,0 -1.93179,3.45109 0.75292,6.84816 4.74982,6.01016 7.49584,16.44383 5.25713,19.97476 -0.55388,0.87358 -1.04883,-0.20965 -1.45723,-3.18921 z"
         id="path4293"
         inkstitch:fill_underlay="False" />
      <path
         style="display:inline;fill:#000000;stroke:none"
         d="m 429.07483,661.09027 c 0,-0.78625 -1.0125,-1.87375 -2.25,-2.41667 -3.8524,-1.69014 -3.5061,-7.18144 1.35826,-21.53838 3.68232,-10.8682 3.44067,-25.62797 -0.41442,-25.31195 -1.44658,0.11859 -1.38925,-0.25582 0.43049,-2.81141 l 2.09931,-2.94821 1.44959,2.79409 c 2.02943,3.91173 1.24373,19.37941 -1.56343,30.77855 -1.89311,7.68737 -2.06122,9.86695 -1.19177,15.45154 0.55672,3.57595 0.80291,6.71103 0.54709,6.96685 -0.25581,0.25582 -0.46512,-0.17817 -0.46512,-0.96441 z"
         id="path4291"
         inkstitch:fill_underlay="False" />
      <path
         id="path38562"
         style="display:inline;fill:#000000;stroke:none"
         d="m 419.30078,176.5 c -0.16,0.0622 -0.3047,0.13767 -0.43359,0.22656 -0.12889,0.0889 -0.24207,0.19109 -0.33985,0.30664 -0.60444,1.0489 -1.15456,2.06129 -1.65234,3.03907 -0.24889,0.48889 -0.48959,0.98747 -0.7207,1.49414 -0.23111,0.50666 -0.45269,1.02243 -0.66602,1.54687 l -0.29297,1.46484 0.5586,1.97461 c 0.48,0.99556 0.9614,1.94685 1.4414,2.85352 0.48,0.90667 1.07405,1.97255 1.78516,3.19922 0.14222,0.0711 0.27116,0.1246 0.38672,0.16015 0.11555,0.0356 0.21775,0.0527 0.30664,0.0527 l 0.61523,-0.37305 c 0.51556,-0.92444 1.0485,-1.9464 1.59961,-3.0664 0.56889,-1.12001 1.07509,-2.19546 1.51953,-3.22657 l 0.32032,-1.41406 -0.32032,-1.57226 -3.38672,-6.4004 c -0.10666,-0.0533 -0.23082,-0.10682 -0.37304,-0.16015 -0.12445,-0.0711 -0.24099,-0.10547 -0.34766,-0.10547 z"
         transform="translate(-50.977,88.9127)"
         inkstitch:fill_underlay="False" />
      <path
         id="path38668"
         style="display:inline;fill:#000000;stroke:none"
         d="m 419.40625,162.29883 c -20.07736,-0.0425 -29.21299,3.78384 -42.51953,17.80273 -6.31043,6.64826 -14.0742,18.24253 -16.44141,24.55078 -0.79432,2.11675 -0.42424,2.09257 13.60742,-0.8789 11.79309,-2.4974 53.93422,-3.17892 70.54102,-1.14063 15.08235,1.85118 30.28735,5.48137 37.75,9.01172 6.48326,3.06704 7.70898,3.16032 7.70898,0.58985 0,-5.02846 -13.24307,-26.11697 -20.78515,-33.09961 -12.19114,-11.28684 -28.48925,-16.79074 -49.86133,-16.83594 z m -0.1582,11.16015 c 0.22222,-0.0178 0.43759,-0.003 0.64648,0.041 0.20889,0.0444 0.41187,0.11991 0.60742,0.22656 0.20445,0.0978 0.4246,0.22672 0.66016,0.38672 0.23556,0.16 0.48528,0.35005 0.75195,0.57227 l 4.05469,7.33398 c 0.0889,0.34667 0.15477,0.69718 0.19922,1.05274 0.0444,0.35555 0.0664,0.71563 0.0664,1.08007 0,0.42667 -0.0344,0.87176 -0.10547,1.33399 -0.0711,0.46222 -0.17809,0.94167 -0.32032,1.43945 l -3.75976,7.65234 c -0.39112,0.28445 -0.82664,0.56907 -1.30664,0.85352 -0.23111,0.14222 -0.46084,0.2492 -0.6875,0.32031 -0.22667,0.0711 -0.45161,0.10742 -0.67383,0.10743 -0.26667,0 -0.53075,-0.0411 -0.79297,-0.1211 -0.26222,-0.08 -0.52152,-0.19937 -0.7793,-0.35937 -0.25777,-0.16 -0.49848,-0.34385 -0.7207,-0.55274 -0.22222,-0.20889 -0.42661,-0.44339 -0.61328,-0.70117 l -3.51953,-7.14648 c -0.10667,-0.39111 -0.1869,-0.77794 -0.24024,-1.16016 -0.0533,-0.38222 -0.0801,-0.75948 -0.0801,-1.13281 0,-0.36445 0.0267,-0.73692 0.0801,-1.11914 0.0533,-0.38223 0.13357,-0.77383 0.24024,-1.17383 l 3.43945,-7.09375 c 0.26222,-0.30667 0.51953,-0.57469 0.76953,-0.80469 0.25,-0.23 0.49269,-0.42088 0.73047,-0.57422 0.23778,-0.15333 0.46976,-0.26903 0.69531,-0.3457 0.22556,-0.0767 0.44487,-0.11524 0.65821,-0.11524 z m -9.84375,0.125 c 0.0842,0.004 0.16609,0.0136 0.24609,0.0293 0.16,0.0311 0.31091,0.086 0.45313,0.16602 0.15111,0.0711 0.26428,0.16374 0.33984,0.27929 0.0756,0.11556 0.11523,0.25407 0.11523,0.41407 v 20.48046 c -0.0533,0.15111 -0.13356,0.28767 -0.24023,0.41211 -0.10667,0.12445 -0.24039,0.23621 -0.40039,0.33399 -0.16,0.0978 -0.32525,0.17181 -0.49414,0.2207 -0.16889,0.0489 -0.34175,0.0723 -0.51953,0.0723 -0.19556,0 -0.36842,-0.0267 -0.51953,-0.0801 -0.15112,-0.0533 -0.28005,-0.13358 -0.38672,-0.24023 l -8.42774,-16.50586 v 15.83984 c -0.0533,0.14222 -0.13357,0.27258 -0.24023,0.39258 -0.10667,0.12 -0.23844,0.23035 -0.39844,0.32812 -0.15111,0.0978 -0.29918,0.16508 -0.44141,0.20508 -0.14222,0.04 -0.27877,0.051 -0.41211,0.0332 -0.13332,-0.0267 -0.26085,-0.0658 -0.38085,-0.11914 -0.12,-0.0533 -0.23318,-0.11922 -0.33985,-0.19922 -0.0978,-0.0889 -0.17181,-0.18825 -0.2207,-0.29492 -0.0489,-0.10666 -0.0723,-0.22126 -0.0723,-0.3457 0,-1.08445 -0.01,-2.49801 -0.0273,-4.24024 0,-1.7422 -0.008,-3.81288 -0.0254,-6.21289 v -7.20117 -1.97265 c 0,-0.53334 0.008,-0.98605 0.0254,-1.35938 0.17778,-0.0711 0.39174,-0.12461 0.64062,-0.16015 0.26667,-0.0355 0.52455,-0.0527 0.77344,-0.0527 0.26667,0 0.53075,0.0172 0.79297,0.0527 0.26222,0.0356 0.52152,0.089 0.7793,0.16015 l 7.86718,16.13281 v -15.57226 c 0.0267,-0.12445 0.074,-0.23958 0.14063,-0.3418 0.0667,-0.10222 0.1531,-0.19344 0.25977,-0.27344 0.11555,-0.0889 0.24449,-0.16434 0.38671,-0.22656 0.14223,-0.0622 0.29791,-0.11093 0.4668,-0.14648 0.0889,-0.009 0.17552,-0.0115 0.25977,-0.008 z m 31.25,0.67579 c 0.12444,0 0.23284,0.0296 0.32617,0.0918 0.0933,0.0622 0.1702,0.15681 0.23242,0.28125 0.0711,0.12445 0.1246,0.26437 0.16016,0.41992 0.0356,0.15556 0.0547,0.32701 0.0547,0.51368 0,0.19555 -0.0239,0.37798 -0.0684,0.54687 -0.0444,0.16889 -0.11034,0.32264 -0.19922,0.46484 -0.08,0.13334 -0.176,0.22455 -0.28711,0.27344 -0.11111,0.0489 -0.23669,0.057 -0.37891,0.0215 h -6.56055 c -0.87111,1.86667 -1.64476,3.54573 -2.32031,5.03906 -0.33778,0.73778 -0.59087,1.3166 -0.75976,1.73437 -0.16889,0.41778 -0.25391,0.67567 -0.25391,0.77344 -0.0533,0.10667 -0.0925,0.21169 -0.11914,0.31836 -0.0267,0.10667 -0.041,0.21365 -0.041,0.32031 0,0.16 0.0535,0.34722 0.16016,0.56055 l 3.94727,7.70703 h 6.32031 c 0.16,0.0445 0.29992,0.10555 0.41992,0.18555 0.12,0.08 0.21883,0.17936 0.29883,0.29492 0.0889,0.10667 0.15672,0.21984 0.20117,0.33984 0.0444,0.12 0.0664,0.24558 0.0664,0.37891 0,0.16889 -0.0211,0.324 -0.0645,0.46289 -0.0433,0.13889 -0.10864,0.26221 -0.19531,0.3711 -0.0867,0.10886 -0.19422,0.20238 -0.32422,0.28124 -0.13,0.0789 -0.28174,0.14252 -0.45508,0.19141 h -6.61328 c -0.24889,0 -0.48481,-0.0377 -0.70703,-0.11328 -0.22222,-0.0756 -0.4314,-0.18873 -0.62695,-0.33984 -0.19556,-0.15111 -0.37321,-0.324 -0.53321,-0.51953 -0.16,-0.19556 -0.30328,-0.4143 -0.42773,-0.6543 l -3.70508,-7.22656 c -0.18666,-0.36445 -0.32854,-0.71496 -0.42187,-1.05274 -0.0933,-0.33778 -0.13867,-0.66154 -0.13868,-0.97266 0,-0.23997 0.0344,-0.50266 0.10547,-0.7871 0.0711,-0.28445 0.17809,-0.59104 0.32032,-0.91993 l 3.2539,-6.93359 c 0.15112,-0.33778 0.29723,-0.63339 0.43946,-0.88672 0.14222,-0.25333 0.28072,-0.46392 0.41406,-0.63281 0.0711,-0.0845 0.14882,-0.15932 0.23437,-0.22266 0.0856,-0.0633 0.1793,-0.11598 0.2793,-0.1582 0.2,-0.0845 0.42777,-0.12695 0.68555,-0.12695 z"
         transform="translate(-50.977,88.9127)"
         inkstitch:fill_underlay="False" />
      <path
         style="display:inline;fill:#000000;stroke:none"
         d="m 560.09688,535.68647 c 6.92432,-9.85286 11.39377,-16.58374 12.86322,-19.37173 0.7619,-1.44555 3.39431,-5.68134 5.8498,-9.41287 3.91078,-5.94308 6.83984,-14.7154 4.91344,-14.7154 -0.33815,0 -1.72603,2.19288 -3.08418,4.87306 -2.31803,4.57439 -13.56433,20.98179 -13.56433,19.78919 0,-0.81802 4.08421,-7.73781 6.5882,-11.16225 7.97918,-10.91225 17.23275,-41.64951 19.86956,-66 0.77425,-7.15 1.91839,-15.25 2.54255,-18 0.63396,-2.79321 0.9128,-8.75154 0.63178,-13.5 l -0.50304,-8.5 2.01644,9.5 c 1.63079,7.68313 2.02134,13.32498 2.04206,29.5 0.0248,19.34384 -0.0789,20.3937 -3.15995,32 -1.75206,6.6 -3.58717,13.62021 -4.07802,15.60047 -0.90625,3.6561 -4.1064,11.16845 -5.921,13.89953 -0.54815,0.825 -2.64511,4.425 -4.65992,8 -4.38242,7.77601 -13.12819,19.11935 -22.35915,29 l -4.20411,4.5 z"
         id="path4353"
         inkstitch:fill_underlay="False" />
    </g>
    <g
       inkscape:groupmode="layer"
       id="layer9"
       inkscape:label="ConBlue"
       style="display:inline"
       transform="translate(50.977,-88.9127)">
      <path
         id="path16017"
         style="display:inline;fill:#000000;stroke:none"
         d="m 448.39979,543.03678 c -0.3553,0.0243 -0.69907,0.01 -0.88787,0.12666 -0.6737,0.41637 -1.9798,0.91583 -3.3686,0.94443 -2.24077,0.0461 -2.53118,-0.0548 -2.24232,2.83055 0.40757,4.07096 -4.24426,9.24805 -8.30859,9.24805 -1.50265,0 -2.3699,0.42994 -2.01758,1 0.33992,0.55 -0.28281,1 -1.38281,1 -2.67504,0 -3.70992,1.86848 -1.42969,2.58008 0.99736,0.31127 2.59379,0.98234 3.54883,1.49219 2.02744,1.08236 2.74116,1.15578 2.65039,0.27148 -0.004,-0.006 -0.0101,-0.0115 -0.0137,-0.0176 -0.0282,-0.0488 -0.0496,-0.0986 -0.0664,-0.14844 -0.0168,-0.0499 -0.028,-0.0994 -0.0332,-0.15039 -0.005,-0.051 -0.004,-0.10404 0.002,-0.15625 0.006,-0.0522 0.0172,-0.10473 0.0352,-0.1582 0.009,-0.0264 0.0235,-0.0534 0.0352,-0.0801 -0.18297,-2.17788 0.35698,-4.63281 1.12305,-4.63281 0.53273,0 0.70916,0.675 0.39258,1.5 -0.59092,1.5399 -0.22432,1.73124 1.93555,0.83008 0.0511,-0.0234 0.10802,-0.0515 0.1582,-0.0742 0.28455,-0.12882 0.55475,-0.24597 0.80859,-0.35352 0.10545,-0.0447 0.19677,-0.0801 0.29688,-0.12109 2.50663,-1.19479 2.82071,-3.55328 0.34179,-2.95703 -0.8858,0.21306 -0.72721,-0.35899 0.46094,-1.67188 0.99367,-1.098 2.05271,-3.83153 2.35352,-6.07422 0.58114,-4.33276 1.6404,-2.36717 3.10937,-2.42382 1.17566,-0.0453 1.56462,1.40873 2.60938,1.00781 1.41899,-0.54452 1.63616,-0.0688 1.375,3.01953 -0.17042,2.01536 -0.9208,3.8643 -1.66602,4.10938 -0.96572,0.31761 -1.16914,-0.13808 -0.70898,-1.5879 1.03132,-3.24935 -0.72328,-3.20423 -3.39453,0.0879 l -2.45899,3.03125 2.95899,-0.67774 c 2.80054,-0.64123 2.69387,-0.43638 -1.97852,3.83789 -0.66092,0.60461 -1.10167,1.0397 -1.58008,1.50391 -2.33565,2.2663 -2.68603,3.05354 -1.41992,3.1289 1.3645,0.0813 2.23475,0.16754 2.93945,0.27539 0.0787,0.008 0.17239,0.017 0.24805,0.0254 0.15469,0.0172 0.30505,0.0276 0.45117,0.0312 0.14612,0.004 0.2874,10e-4 0.42188,-0.008 0.13447,-0.009 0.26306,-0.0243 0.38281,-0.0449 0.11975,-0.0206 0.23203,-0.0468 0.33398,-0.0781 0.10196,-0.0314 0.19432,-0.0683 0.27539,-0.10938 0.0811,-0.0411 0.14991,-0.0868 0.20704,-0.13672 0.0286,-0.025 0.0542,-0.0511 0.0762,-0.0781 0.0133,-0.0163 0.0224,-0.0337 0.0332,-0.0508 -0.195,-0.14513 -0.41333,-0.28052 -0.57226,-0.43946 -1.49372,-1.49371 -1.40022,-1.84935 1.19726,-4.56054 1.54968,-1.61751 3.69114,-2.94141 4.75977,-2.94141 1.7245,0 1.88402,-0.52997 1.41211,-4.7168 -0.29244,-2.59446 -1.02676,-4.88261 -1.63086,-5.08398 -0.60424,-0.20115 -1.09781,-1.02996 -1.09781,-1.84159 0,-0.68234 -0.2037,-0.53938 -0.67504,-0.50711 z"
         sodipodi:nodetypes="sssssssssccscsscsscsscsssssssscccssscscsssssscsssscss"
         inkstitch:fill_underlay="False" />
      <path
         id="path16021"
         style="display:inline;fill:#000000;stroke:none"
         d="m 449.10217,564.78608 c -0.14378,-0.0167 -0.29213,-0.0373 -0.43164,-0.0508 -0.29223,-0.0282 -0.5748,-0.0482 -0.84375,-0.0625 -0.26894,-0.0143 -0.52417,-0.0226 -0.76367,-0.0234 -0.2395,-8.5e-4 -0.46211,0.005 -0.66601,0.0176 -0.20391,0.0122 -0.38863,0.0297 -0.55079,0.0547 -0.16215,0.025 -0.30175,0.0564 -0.41601,0.0937 -0.0571,0.0187 -0.10834,0.0388 -0.15235,0.0605 -0.044,0.0217 -0.0812,0.0456 -0.11132,0.0703 -0.0301,0.0247 -0.0529,0.0505 -0.0684,0.0781 -0.007,0.0116 -0.006,0.0249 -0.01,0.0371 0.47284,0.54295 1.28138,1.12814 1.98633,1.39648 0.825,0.31405 2.9625,0.60699 4.75,0.6504 2.73137,0.0663 3.24728,-0.28093 3.23438,-2.17188 -0.0115,-1.69306 -0.23476,-1.90478 -0.9004,-0.85352 -0.009,0.0141 -0.0236,0.0253 -0.0332,0.0391 -0.0125,0.0397 -0.0277,0.0782 -0.0449,0.11523 -0.0207,0.0444 -0.0448,0.0884 -0.0723,0.12891 -0.0275,0.0405 -0.0575,0.0786 -0.0918,0.11523 -0.0343,0.0367 -0.0721,0.0707 -0.11328,0.10352 -0.0412,0.0329 -0.0867,0.0647 -0.13477,0.0937 -0.0962,0.0582 -0.20614,0.10904 -0.33008,0.15234 -0.12393,0.0433 -0.2621,0.0788 -0.41406,0.10742 -0.15196,0.0287 -0.31782,0.0501 -0.49805,0.0645 -0.18023,0.0143 -0.37328,0.0213 -0.58203,0.0215 -0.12476,1.2e-4 -0.26537,-0.007 -0.40039,-0.0117 -0.73143,0.013 -1.52712,-0.0691 -2.3418,-0.22656 z"
         inkstitch:fill_underlay="False" />
      <path
         id="path14903"
         style="display:inline;fill:#000000;stroke:#000000"
         d="m 409.57483,539.16499 c 5.58179,2.80438 5.77715,3.01457 2.80859,3.01757 -1.68944,0.002 -3.09236,0.43289 -3.94336,1.22852 -0.11247,0.16367 -0.088,0.19192 -0.0916,0.35547 -0.004,0.17266 0.0484,0.18104 0.10929,0.26367 0.0548,0.0607 0.2102,0.20321 0.26172,0.24023 0.0516,0.0371 0.11032,0.0746 0.17383,0.11133 0.12702,0.0734 0.27692,0.14526 0.44922,0.2168 0.1723,0.0715 0.36975,0.13013 0.58399,0.19922 0.21423,0.0691 0.44834,0.11366 0.70117,0.17968 0.25283,0.066 0.52832,0.10758 0.8164,0.16993 0.16429,0.0356 0.46768,0.0713 0.64258,0.10546 1.52725,0.23212 3.49627,0.46013 5.51384,0.65241 1.2543,0.11954 2.1479,0.15379 3.24006,0.26166 0.40944,0.009 1.16797,0.084 1.16797,0.084 0,0 0.59661,-0.0432 0.86134,-0.0176 0.26473,0.0257 0.50492,0.0675 0.78515,0.11524 0.28023,0.0478 0.56248,0.11234 0.8496,0.17969 0.28712,0.0673 0.57008,0.14416 0.85548,0.22851 0.2854,0.0844 0.56476,0.18048 0.83984,0.2793 0.27508,0.0988 0.53096,0.18809 0.78711,0.29882 0.25615,0.11074 0.52529,0.23539 0.7461,0.34766 0.23019,0.11705 0.44815,0.23638 0.64062,0.36329 l 2.80078,1.8457 1.84766,1.38867 c 0.87679,-1.86216 0.55276,-2.19041 -1.52344,-3.55078 -1.46681,-0.9611 -6.38112,-2.06905 -11.72461,-2.64258 -10.13797,-1.08813 -12.85298,-1.70154 -8.07422,-1.82227 1.71875,-0.0434 4.56562,-0.36664 6.32617,-0.71874 1.10917,-0.22184 1.79457,-0.3783 1.92774,-0.59571 -0.007,-0.0222 -0.007,-0.0428 -0.0215,-0.0664 -0.0273,-0.0439 -0.0676,-0.0912 -0.12304,-0.14063 -0.0554,-0.0494 -0.12462,-0.10077 -0.20899,-0.15625 -0.0844,-0.0555 -0.18463,-0.11559 -0.29883,-0.17773 -0.1142,-0.0622 -0.24376,-0.12789 -0.38867,-0.19727 -0.28982,-0.13876 -0.64065,-0.29171 -1.05859,-0.46289 -0.30344,-0.12429 -0.68247,-0.26863 -1.05664,-0.41211 -0.73299,-0.27294 -1.35169,-0.50907 -2.39649,-0.88477 -1.25131,-0.44995 -2.37084,-0.84511 -3.35937,-1.18554 -0.98953,-0.34077 -1.8479,-0.62639 -2.57422,-0.85742 -0.70581,-0.22451 -1.27702,-0.39474 -1.73438,-0.51563 -0.006,-10e-4 -0.0159,-0.004 -0.0215,-0.006 -0.23526,-0.062 -0.4384,-0.11008 -0.60742,-0.14453 -0.0984,-0.0201 -0.16039,-0.0264 -0.23633,-0.0371 -0.0578,-0.008 -0.13297,-0.0227 -0.17774,-0.0254 -0.1004,-0.006 -0.16832,0.002 -0.20312,0.0234 -10e-4,9.1e-4 -5.9e-4,0.003 -0.002,0.004 -0.0146,0.0103 -0.0245,0.023 -0.0254,0.0391 -10e-4,0.0176 0.006,0.0381 0.0215,0.0625 0.0297,0.047 0.093,0.10917 0.18359,0.18164 0.10334,0.0827 0.25491,0.18502 0.4375,0.30078 0.31977,0.20273 0.75168,0.45164 1.31446,0.75586 0.58777,0.31773 1.30546,0.68876 2.1582,1.11719 z"
         sodipodi:nodetypes="sccccsssssscsccssssssscccssssccssssscsssccscscsscsssss"
         inkstitch:fill_underlay="False" />
      <path
         id="path14909"
         style="display:inline;fill:#000000;stroke:#000000"
         d="m 431.78381,553.71577 -4.13476,-1.50586 c -0.13506,0.0749 -0.27227,0.14556 -0.41211,0.21289 -0.29428,0.14072 -0.60477,0.23363 -0.88127,0.33407 -0.15752,0.0531 -0.35252,0.0856 -0.52294,0.13208 -0.34061,0.0931 -0.68421,0.14625 -0.84656,0.16587 -0.20433,0.0342 -0.53367,0.0761 -0.75902,0.1046 -0.22534,0.0286 -0.60906,0.0549 -0.85812,0.0781 -0.12951,0.0121 -1.58555,0.077 -1.72203,0.0877 -1.8303,0.056 -2.86535,0.0935 -6.23274,0.1387 -1.39767,0.0187 -2.85574,0.0557 -4.24005,0.12025 -1.38432,0.0646 -2.74951,0.14882 -3.89637,0.23239 -1.14686,0.0836 -2.30342,0.23688 -2.98432,0.31027 -0.66709,0.0719 -0.85005,0.19706 -0.85005,0.19706 0,0 0.17245,-0.0285 0.62579,-0.007 1.68927,0.0807 5.78804,0.43591 5.78804,0.43591 l 3.20947,0.21241 3.20947,0.2124 14.64429,0.20787 z"
         sodipodi:nodetypes="ccccccsscsssscsccccc"
         inkstitch:fill_underlay="False" />
    </g>
  </g>
  <g
     inkscape:groupmode="layer"
     id="layer18"
     inkscape:label="Yellow Embroidery"
     style="display:inline;mix-blend-mode:multiply">
    <g
       inkscape:groupmode="layer"
       id="layer1"
       inkscape:label="Yellow"
       style="display:inline"
       transform="translate(50.977,-88.9127)">
      <path
         style="display:inline;fill:#000000"
         d="m 339.15242,416.422 c -5.8887,-6.05601 -11.04434,-12.26688 -17.82759,-21.47648 -1.2375,-1.68015 -2.26975,-4.45077 -2.29389,-6.15693 -0.0241,-1.70617 -0.73761,-4.90212 -1.58548,-7.10212 -4.70343,-12.20414 -4.03925,-15.86624 3.83369,-21.138 2.57749,-1.7259 4.37344,-3.51107 3.99101,-3.96703 -0.38243,-0.45597 0.10304,-0.21724 1.07884,0.5305 0.97579,0.74774 1.95672,1.17697 2.17985,0.95385 0.22312,-0.22313 2.23725,-1.94234 4.47583,-3.82047 2.23858,-1.87812 4.07015,-4.02083 4.07015,-4.76156 0,-1.2043 3.79047,-3.29729 5.97148,-3.29729 3.29397,0 -8.94343,14.37231 -14.85725,17.44922 -3.55761,1.85099 -7.11423,6.13448 -7.11423,8.56817 0,1.1012 0.99816,2.78528 2.21813,3.7424 1.21997,0.95711 4.5561,4.10271 7.41362,6.99021 2.85752,2.8875 5.79687,5.25689 6.53187,5.26531 1.00739,0.0115 0.96711,0.25738 -0.16362,0.99861 -1.05597,0.69221 -0.49191,0.78948 1.90549,0.32858 2.45154,-0.4713 3.20534,-0.33085 2.69098,0.5014 -0.97756,1.58173 2.99565,1.48913 13.20622,-0.3078 18.95318,-3.33551 34.90471,-8.95355 40.33643,-14.20627 4.18044,-4.04267 7.20469,-4.14894 7.65821,-0.2691 0.42446,3.63114 -1.85019,5.23244 -13.79733,9.713 -5.775,2.16581 -12.76922,5.08805 -15.54271,6.49386 -9.27654,4.70204 -15.78687,6.02439 -27.16787,5.51822 l -10.35183,-0.46039 2.74082,2.8608 c 2.98512,3.1158 10.56238,5.81378 16.32794,5.81378 5.26092,0 16.68445,-4.13945 30.81231,-11.16521 11.49068,-5.71429 12.43053,-6.01417 13.98305,-4.46165 2.57373,2.57373 0.67609,4.52383 -9.87829,10.15142 -5.18288,2.7635 -13.53882,8.01956 -18.56876,11.68012 -11.05777,8.04734 -18.20522,11.79532 -22.49383,11.79532 -2.64336,0 -4.35941,-1.18653 -9.78324,-6.76447 z"
         id="path1664"
         inkstitch:row_spacing_mm="0.22"
         inkstitch:fill_underlay_angle="30"
         inkstitch:fill_underlay_inset_mm="2"
         inkstitch:fill_underlay_max_stitch_length_mm="1.5"
         inkstitch:fill_underlay_row_spacing_mm=""
         inkstitch:fill_underlay_skip_last="True" />
      <path
         style="display:inline;fill:#000000"
         d="m 448.79233,686.09489 c -2.08037,-0.48987 -5.06635,-1.55457 -6.6355,-2.36601 -3.2788,-1.69554 -10.73169,-9.81218 -10.78348,-11.74386 -0.0192,-0.7142 -0.78573,-6.29183 -1.70352,-12.39473 -1.64207,-10.91913 -1.63374,-11.23826 0.52231,-20 3.86999,-15.7269 3.39109,-35.7305 -0.77268,-32.27488 -0.67047,0.55645 -0.014,-1.38243 1.45894,-4.30861 2.54575,-5.05763 2.66255,-5.93891 2.36552,-17.84799 -0.23189,-9.29781 0.0807,-13.66881 1.2125,-16.95385 0.96235,-2.79324 1.18152,-4.83998 0.59408,-5.54781 -0.63419,-0.76414 0.18831,-1.65532 2.58066,-2.79615 5.03915,-2.40301 6.20847,-2.06473 2.84921,0.82425 -1.93944,1.66793 -2.40679,2.52689 -1.40554,2.58333 0.825,0.0465 2.5125,0.19685 3.75,0.3341 1.2375,0.13726 2.25,-0.17403 2.25,-0.69174 0,-0.89621 2.82367,-0.49684 6.5225,0.92254 1.41382,0.54253 1.59092,0.2416 1.02739,-1.74574 -0.52348,-1.84611 -0.43811,-2.05448 0.36929,-0.90127 2.2854,3.26426 1.31306,4.30368 -3.41918,3.65505 -2.475,-0.33923 -4.5,-0.21753 -4.5,0.27046 0,0.48799 -0.81936,0.67298 -1.82081,0.4111 -4.31365,-1.12805 -5.57524,16.28192 -2.20002,30.3602 2.9943,12.48941 3.41927,22.098 1.61286,36.46635 -2.86317,22.77389 -1.94257,29.52242 4.97197,36.44731 7.08408,7.09471 17.53435,7.95114 28.53582,2.33861 2.21857,-1.13183 8.79356,-5.83682 14.6111,-10.45554 11.75673,-9.33402 19.7527,-13.65321 35.22319,-19.02656 12.28514,-4.26698 21.37338,-8.68356 24.68675,-11.99693 5.68413,-5.68413 1.12829,-12.12991 -12.09789,-17.11658 -11.76264,-4.43486 -17.5578,-12.29007 -19.1668,-25.98012 -0.92104,-7.83661 2.7674,-20.86486 4.01005,-14.16425 0.23367,1.26 0.95686,5.18742 1.60709,8.72761 2.25356,12.26965 7.57661,19.96011 18.04906,26.07635 9.05104,5.28609 12.95444,8.6872 14.66285,12.776 3.5776,8.5624 -4.31938,16.45993 -28.35067,28.35262 -17.1324,8.47854 -31.72311,18.20759 -44.5908,29.73305 -4.80852,4.30694 -8.2482,6.49456 -11.9315,7.58839 -5.5889,1.65972 -17.96595,1.88847 -24.09475,0.4453 z"
         id="path1538"
         inkstitch:angle="60"
         inkstitch:row_spacing_mm="0.15"
         inkstitch:fill_underlay_angle="70"
         inkstitch:fill_underlay_inset_mm="3"
         inkstitch:fill_underlay_max_stitch_length_mm="3"
         inkstitch:fill_underlay_row_spacing_mm="3" />
      <path
         style="display:inline;fill:#000000"
         d="m 309.03181,339.83813 -0.45698,-5.84834 -7,-2.23514 c -19.79436,-6.32045 -27.08708,-14.96329 -19.86652,-23.54444 4.14857,-4.93029 17.09545,-10.7534 29.00102,-13.04376 2.67602,-0.5148 8.2405,-1.64099 12.3655,-2.50262 11.84908,-2.47506 54.03954,-3.14417 70.54162,-1.11873 15.84807,1.94516 29.95385,5.41498 39.11363,9.62138 7.64981,3.513 8.47132,3.47399 -10.65525,0.50597 -12.41633,-1.92674 -42.41361,-1.94328 -55,-0.0303 -22.18777,3.37223 -38.91563,8.4967 -47.95059,14.68937 -6.67944,4.57816 -8.37874,8.29869 -9.06846,19.85498 -0.52518,8.79945 -0.60069,9.06873 -1.02397,3.65166 z"
         id="path1688"
         inkstitch:angle="30"
         inkstitch:row_spacing_mm="0.15"
         inkstitch:fill_underlay_angle="70"
         inkstitch:fill_underlay_inset_mm="3"
         inkstitch:fill_underlay_max_stitch_length_mm="3"
         inkstitch:fill_underlay_row_spacing_mm="3" />
      <path
         style="display:inline;fill:#000000"
         d="m 366.07483,349.54006 c -1.375,-0.72826 -5.11964,-1.33074 -8.32143,-1.33885 -6.63646,-0.0168 -8.74844,-1.42439 -8.54239,-5.69331 0.10511,-2.17772 0.23167,-2.33397 0.55469,-0.68486 0.35759,1.8256 1.50811,2.29863 7.90467,3.25 4.11738,0.61239 8.31529,1.11343 9.32868,1.11343 1.01338,0 2.07776,0.89955 2.36527,1.999 0.68237,2.60938 -0.21933,2.98069 -3.28949,1.35459 z"
         id="path1684"
         inkstitch:row_spacing_mm="0.22"
         inkstitch:fill_underlay_angle="30"
         inkstitch:fill_underlay_inset_mm="2"
         inkstitch:fill_underlay_max_stitch_length_mm="1.5"
         inkstitch:fill_underlay_row_spacing_mm=""
         inkstitch:fill_underlay_skip_last="True" />
      <path
         style="display:inline;fill:#000000"
         d="m 365.30052,354.17125 -3.27431,-1.75576 2.54483,-0.63871 c 2.8705,-0.72045 6.81944,0.96275 6.25206,2.66489 -0.5719,1.71568 -1.944,1.64849 -5.52258,-0.27042 z"
         id="path1680"
         inkstitch:row_spacing_mm="0.22"
         inkstitch:fill_underlay_angle="30"
         inkstitch:fill_underlay_inset_mm="2"
         inkstitch:fill_underlay_max_stitch_length_mm="1.5"
         inkstitch:fill_underlay_row_spacing_mm=""
         inkstitch:fill_underlay_skip_last="True" />
      <path
         style="display:inline;fill:#000000"
         d="m 341.07483,355.88647 c 0,-1.99034 2.14967,-3.7 4.65225,-3.7 h 2.25225 l -2.31692,2.5 c -2.51976,2.71887 -4.58758,3.25976 -4.58758,1.2 z"
         id="path1678"
         inkstitch:row_spacing_mm="0.22"
         inkstitch:fill_underlay_angle="30"
         inkstitch:fill_underlay_inset_mm="2"
         inkstitch:fill_underlay_max_stitch_length_mm="1.5"
         inkstitch:fill_underlay_row_spacing_mm=""
         inkstitch:fill_underlay_skip_last="True" />
      <path
         style="display:inline;fill:#000000"
         d="m 407.07483,384.4804 c 0,-1.18309 0.675,-2.82607 1.5,-3.65107 0.97436,-0.97436 1.5,-3.45238 1.5,-7.07143 0,-6.61115 -1.90205,-9.11365 -7.69422,-10.12321 -4.43068,-0.77226 -23.45955,-9.16312 -24.54047,-10.82122 -2.57565,-3.95101 1.4894,-3.39403 14.9334,2.04612 3.43444,1.38975 4.4679,1.89155 5.75258,2.47127 0.75322,0.33989 2.3763,1.10865 2.90527,1.34836 1.84357,0.83543 4.44255,2.04169 6.28348,3.50727 0.23719,0.18883 1.85819,0.93064 3.45559,2.06809 2.18012,1.55239 2.90437,2.87402 2.90437,5.3 0,1.77755 -0.35814,3.65941 -0.79586,4.18191 -0.43772,0.5225 -1.4004,2.75 -2.13929,4.95 -0.73888,2.2 -1.95574,4.88763 -2.70414,5.97251 -1.33722,1.93843 -1.36071,1.93535 -1.36071,-0.1786 z"
         id="path1672"
         sodipodi:nodetypes="sssssssssssssss"
         inkstitch:row_spacing_mm="0.22"
         inkstitch:fill_underlay_angle="30"
         inkstitch:fill_underlay_inset_mm="2"
         inkstitch:fill_underlay_max_stitch_length_mm="1.5"
         inkstitch:fill_underlay_row_spacing_mm=""
         inkstitch:fill_underlay_skip_last="True" />
      <path
         style="display:inline;fill:#000000"
         d="m 504.07483,571.22342 c 0,-1.37952 2.32367,-2.59997 8.5,-4.46441 15.4379,-4.66022 24.97973,-12.15248 41.483,-32.57254 3.72514,-4.60925 2.88083,-4.00361 -5.21329,3.73954 -7.80981,7.47118 -11.41885,10.1028 -18.85693,13.75 -10.19784,5.00043 -10.91278,5.19379 -10.91278,2.95144 0,-0.85746 0.36433,-1.33384 0.80963,-1.05863 0.73491,0.45419 7.92718,-2.82536 14.14662,-6.45062 7.22398,-4.21081 27.27592,-22.33964 32.80049,-29.65471 7.46794,-9.88829 11.46458,-15.78025 13.71062,-20.2126 1.41148,-2.78543 2.843,-5.06442 3.18115,-5.06442 1.9264,0 -1.00266,8.77232 -4.91344,14.7154 -2.45549,3.73153 -5.0879,7.99376 -5.8498,9.47163 -1.64429,3.18946 -11.28371,17.25827 -16.649,24.29936 -4.89606,6.42531 -15.74626,14.73237 -27.26557,20.8749 -9.47089,5.05023 -24.9707,11.05611 -24.9707,9.67566 z"
         id="path1552"
         inkstitch:row_spacing_mm="0.22"
         inkstitch:fill_underlay_angle="30"
         inkstitch:fill_underlay_inset_mm="2"
         inkstitch:fill_underlay_max_stitch_length_mm="1.5"
         inkstitch:fill_underlay_row_spacing_mm=""
         inkstitch:fill_underlay_skip_last="True" />
      <path
         style="display:inline;fill:#000000"
         d="m 285.57483,683.27885 c -4.95,-1.53681 -12.825,-4.2283 -17.5,-5.98109 -11.78726,-4.41937 -27.89008,-8.58593 -45,-11.64362 -22.8849,-4.08972 -30.05766,-6.96809 -32.61473,-13.08802 -2.05592,-4.92051 -1.74035,-7.51403 2.11473,-17.37965 4.11156,-10.52199 4.41015,-15.89666 1.5,-27 -1.08115,-4.125 -1.95913,-9.75 -1.95106,-12.5 0.0246,-8.39854 2.57429,-10.13017 16.92966,-11.49796 10.11143,-0.96343 13.81718,-2.21385 19.77245,-6.67179 3.73744,-2.79773 5.6526,-6.14744 6.76381,-11.83025 l 0.78216,-4 0.88952,4 c 1.23734,5.56407 -0.69109,12.86611 -4.56229,17.27522 -4.9136,5.59635 -10.40113,7.4978 -22.35419,7.74582 -6.83292,0.14177 -10.78354,0.66022 -11.86403,1.55695 -2.40913,1.9994 -1.36415,9.01009 2.67135,17.92201 4.64305,10.2536 4.55313,15.81065 -0.42028,25.97179 -7.37375,15.06524 -6.24643,15.96217 28.8429,22.94823 11,2.19003 28.55,6.54713 39,9.68243 26.75448,8.02711 37.28876,8.41579 46.27057,1.7072 8.96292,-6.69447 10.11689,-17.59387 3.65354,-34.50825 -4.84353,-12.67538 -35.1503,-58.66539 -47.64657,-72.30287 -6.6273,-7.23253 -14.65495,-12.47442 -19.12641,-12.48915 -1.56688,-0.005 -4.39547,0.72453 -6.28576,1.62153 -4.46891,2.12064 -5.6374,0.86343 -2.05961,-2.21598 9.99275,-8.60079 32.23274,8.11879 51.32497,38.58507 3.27434,5.225 8.18443,13.02823 10.91131,17.3405 2.72688,4.31228 8.27661,11.47882 12.33274,15.92564 4.05613,4.44683 8.82863,10.36861 10.60556,13.1595 7.10501,11.15935 10.21432,22.01295 7.26009,25.34265 -0.84503,0.95244 -2.51749,3.75671 -3.71656,6.23171 -1.76589,3.64495 -3.87482,5.61476 -11.09896,10.36679 -4.90536,3.22674 -10.6077,6.46949 -12.67187,7.20611 -5.75091,2.05227 -12.86506,1.58936 -22.75304,-1.48052 z"
         id="path1540"
         inkstitch:angle="160"
         inkstitch:row_spacing_mm="0.15"
         inkstitch:fill_underlay_angle="70"
         inkstitch:fill_underlay_inset_mm="3"
         inkstitch:fill_underlay_max_stitch_length_mm="3"
         inkstitch:fill_underlay_row_spacing_mm="3" />
    </g>
    <g
       inkscape:groupmode="layer"
       id="layer7"
       inkscape:label="ConYellow"
       style="display:inline"
       transform="translate(50.977,-88.9127)">
      <path
         style="display:inline;fill:#000000;stroke:#000000;stroke-width:1px;stroke-linecap:butt;stroke-linejoin:miter;stroke-opacity:1"
         d="m 394.64621,533.07122 4.93601,3.62866"
         id="path95406-43"
         inkstitch:running_stitch_length_mm="3"
         inkstitch:zigzag_spacing_mm="2" />
      <path
         style="display:inline;fill:#000000;stroke:#000000;stroke-width:1px;stroke-linecap:butt;stroke-linejoin:miter;stroke-opacity:1"
         d="m 392.27725,533.07122 4.93601,3.62866"
         id="path95406-3"
         inkstitch:running_stitch_length_mm="3"
         inkstitch:zigzag_spacing_mm="2" />
      <path
         style="display:inline;fill:#000000;stroke:#000000;stroke-width:1px;stroke-linecap:butt;stroke-linejoin:miter;stroke-opacity:1"
         d="m 389.90826,533.07122 4.93601,3.62866"
         id="path95406-4"
         inkstitch:running_stitch_length_mm="3"
         inkstitch:zigzag_spacing_mm="2" />
      <path
         style="display:inline;fill:#000000;stroke:#000000;stroke-width:1px;stroke-linecap:butt;stroke-linejoin:miter;stroke-opacity:1"
         d="m 387.53927,533.07122 4.93601,3.62866"
         id="path95406-5"
         inkstitch:running_stitch_length_mm="3"
         inkstitch:zigzag_spacing_mm="2" />
      <path
         style="display:inline;fill:#000000;stroke:#000000;stroke-width:1px;stroke-linecap:butt;stroke-linejoin:miter;stroke-opacity:1"
         d="m 385.17031,533.07122 4.93601,3.62866"
         id="path95406-15"
         inkstitch:running_stitch_length_mm="3"
         inkstitch:zigzag_spacing_mm="2" />
      <path
         style="display:inline;fill:#000000;stroke:#000000;stroke-width:1px;stroke-linecap:butt;stroke-linejoin:miter;stroke-opacity:1"
         d="m 382.80133,533.07122 4.93601,3.62866"
         id="path95406-9"
         inkstitch:running_stitch_length_mm="3"
         inkstitch:zigzag_spacing_mm="2" />
      <path
         style="display:inline;fill:#000000;stroke:#000000;stroke-width:1px;stroke-linecap:butt;stroke-linejoin:miter;stroke-opacity:1"
         d="m 380.43236,533.07122 4.93602,3.62866"
         id="path95406-1"
         inkstitch:running_stitch_length_mm="3"
         inkstitch:zigzag_spacing_mm="2" />
      <path
         style="display:inline;fill:#000000;stroke:#000000;stroke-width:1px;stroke-linecap:butt;stroke-linejoin:miter;stroke-opacity:1"
         d="m 378.06338,533.07122 4.93601,3.62866"
         id="path95406"
         inkstitch:running_stitch_length_mm="3"
         inkstitch:zigzag_spacing_mm="2" />
    </g>
  </g>
  <g
     inkscape:groupmode="layer"
     id="layer23"
     inkscape:label="COVID">
    <g
       inkscape:groupmode="layer"
       id="layer27"
       inkscape:label="Ball" />
    <g
       inkscape:groupmode="layer"
       id="layer26"
       inkscape:label="Spikes" />
    <g
       inkscape:groupmode="layer"
       id="layer25"
       inkscape:label="Spots" />
  </g>
  <g
     inkscape:groupmode="layer"
     id="layer24"
     inkscape:label="SYRINGE" />
</svg>
