<?xml version="1.0" encoding="UTF-8" standalone="no"?>
<!-- Created with Inkscape (http://www.inkscape.org/) -->

<svg
   version="1.1"
   id="svg2062"
   width="966"
   height="627"
   viewBox="0 0 966 627"
   sodipodi:docname="21x T-Shirt Mono Art Only.svg"
   inkscape:version="1.1.2 (b8e25be8, 2022-02-05)"
   xmlns:inkscape="http://www.inkscape.org/namespaces/inkscape"
   xmlns:sodipodi="http://sodipodi.sourceforge.net/DTD/sodipodi-0.dtd"
   xmlns="http://www.w3.org/2000/svg"
   xmlns:svg="http://www.w3.org/2000/svg">
  <defs
     id="defs2066" />
  <sodipodi:namedview
     id="namedview2064"
     pagecolor="#ffffff"
     bordercolor="#666666"
     borderopacity="1.0"
     inkscape:pageshadow="2"
     inkscape:pageopacity="0.0"
     inkscape:pagecheckerboard="0"
     showgrid="false"
     inkscape:zoom="1.3530021"
     inkscape:cx="483"
     inkscape:cy="313.74675"
     inkscape:window-width="2074"
     inkscape:window-height="1279"
     inkscape:window-x="4812"
     inkscape:window-y="673"
     inkscape:window-maximized="0"
     inkscape:current-layer="g2068" />
  <g
     inkscape:groupmode="layer"
     inkscape:label="Image"
     id="g2068">
    <path
       style="fill:#000000"
       d="m 779.5,618.83302 c -9.22684,-5.10318 -13.3269,-16.59832 -18.05188,-50.61116 -1.4292,-10.28809 -2.78624,-18.89331 -3.01565,-19.12273 -0.22941,-0.22941 -3.9622,0.55444 -8.29509,1.74188 -13.81263,3.78541 -12.12119,4.60863 -32.54811,-15.84101 l -17.98,-18 h -15.22558 -15.22558 l -13.02764,14.85126 C 642.24035,547.68575 636.80324,553 634.49283,553 c -4.3303,0 -43.25137,-10.89301 -48.65199,-13.61644 -3.58296,-1.80683 -5.17256,-6.44054 -9.33042,-27.19833 -5.40913,-27.00466 -3.85003,-23.9851 -16.85676,-32.64697 -6.20585,-4.13281 -12.60419,-7.75952 -14.21852,-8.05936 -3.54541,-0.6585 -28.39143,6.69161 -29.53647,8.73768 -0.41983,0.7502 -3.23221,4.37599 -6.24973,8.05732 -24.42048,29.79258 -55.70617,55.14365 -89.14894,72.23818 -45.05348,23.02943 -98.46317,34.12129 -147,30.52823 -22.36973,-1.65597 -53.75819,-9.95056 -90,-23.78304 -12.48371,-4.76468 -38.93216,-17.15844 -38.19324,-17.89737 0.19613,-0.19612 5.94484,1.70778 12.77492,4.2309 33.58629,12.40719 61.45427,20.41734 84.45654,24.27552 36.40685,6.10652 81.19008,5.14621 115.29506,-2.47234 17.33539,-3.87247 25.18627,-6.72555 43.66672,-15.8689 28.15846,-13.93162 49.13999,-29.24481 71.6122,-52.26555 7.38741,-7.56774 15.53418,-16.50522 18.10394,-19.86106 l 4.67227,-6.10154 -4.02811,-3.89846 c -5.19173,-5.02464 -23.07115,-25.00108 -26.87375,-30.02568 -1.612,-2.13004 -2.94343,-5.03147 -2.95873,-6.44764 -0.0324,-3.00031 2.46158,-10.39061 10.88238,-32.24706 l 6.09583,-15.82191 -2.64435,-6.67809 c -3.43489,-8.6745 -7.64908,-17.0765 -10.05587,-20.04876 -1.8231,-2.25143 -9.25339,-4.84705 -30.80581,-10.76139 l -6,-1.6465 -4.58948,3.1018 c -6.9741,4.71343 -11.29444,5.02135 -18.61363,1.32663 -3.3244,-1.67815 -7.33868,-4.33667 -8.92062,-5.90783 C 394.42004,349.30598 382.64127,341 381.43385,341 c -0.37175,0 3.83931,4.3875 9.35789,9.75 8.78397,8.53554 10.23149,10.42655 11.62102,15.1815 2.92482,10.00866 1.64406,15.29224 -2.73679,11.29024 -3.88657,-3.55046 -9.02798,-5.51407 -15.668,-5.98392 -9.67584,-0.68467 -13.75167,0.80006 -19.91018,7.2528 -6.75688,7.0797 -8.6453,7.27189 -7.46133,0.75938 0.47495,-2.6125 0.86354,-12.85 0.86354,-22.75 0,-16.06907 -0.25104,-18.80455 -2.34022,-25.5 -4.9552,-15.88051 -14.58436,-35.54501 -20.41788,-41.697 -2.97091,-3.13311 -3.00589,-3.28847 -1.75018,-7.77342 2.21077,-7.89609 0.84946,-13.54755 -6.99314,-29.032 -5.45932,-10.77889 -7.22854,-15.32558 -7.68518,-19.75 C 317.98714,229.58641 317.37558,227 316.95438,227 c -0.4212,0 -3.95522,4.4672 -7.85337,9.92711 -13.59655,19.04389 -17.38336,19.35454 -40.21613,3.29913 C 262.62319,235.82318 255.025,230.99569 252,229.49848 c -7.75975,-3.84065 -12.037,-7.2385 -11.35363,-9.01933 0.92873,-2.42021 5.43975,-1.66285 12.35363,2.07406 21.79182,11.77836 30.15751,14.43658 39.27782,12.48063 5.25641,-1.1273 10.93382,-4.69227 12.68565,-7.96559 0.94162,-1.75943 0.48543,-1.82468 -9.27397,-1.32659 -12.04174,0.61458 -15.28484,-0.14737 -34.40728,-8.08388 -7.03022,-2.9178 -15.03222,-6.18703 -17.78222,-7.26495 -4.10831,-1.61035 -5,-2.3973 -5,-4.41266 0,-3.62776 3.13652,-3.71277 6.85573,-0.18581 4.36805,4.14225 7.47644,5.53822 21.71996,9.7544 14.44154,4.2748 30.01055,5.72576 35.56195,3.31423 C 307.41382,216.78822 320,204.62023 320,202.07752 c 0,-3.28574 -2.8911,-6.98132 -7.16888,-9.16368 -2.12485,-1.08401 -6.54631,-4.77059 -9.82546,-8.19239 -5.00443,-5.22213 -5.96558,-6.79982 -5.98387,-9.82223 C 296.9717,166.62103 301.22481,160 306.59253,160 c 4.61756,0 6.27942,0.8517 7.94446,4.07152 3.10956,6.01323 1.17075,15.91934 -3.69482,18.87827 -2.87676,1.74946 -2.88376,1.77728 -1.02512,4.07261 2.57847,3.18426 4.82034,2.04552 7.40355,-3.76059 3.19572,-7.18279 3.55189,-18.23338 0.82094,-25.47031 C 315.3013,150.52997 311.30463,147 305.82327,147 c -7.8939,0 -12.8386,8.23615 -14.38863,23.96648 L 290.74158,178 h -7.43653 c -4.09009,0 -8.20683,0.41225 -9.1483,0.91611 -1.56427,0.83717 -1.70939,0.0402 -1.68426,-9.25 0.0322,-11.90344 -1.95348,-16.9884 -8.24224,-21.10669 -6.11869,-4.00692 -12.18871,-5.0661 -17.99015,-3.13917 -9.45709,3.14114 -15.2453,12.44022 -16.03413,25.75971 -0.65471,11.05489 0.16783,14.40609 3.85105,15.69007 5.88551,2.0517 8.37311,-0.43586 6.27116,-6.27106 -2.70974,-7.52245 0.40338,-17.78874 6.19431,-20.42726 C 255.61766,156.02767 264,162.853 264,174.40278 c 0,7.56512 -0.9511,8.69796 -11.16851,13.30264 -5.13232,2.31298 -11.26773,4.69922 -13.63424,5.30275 -8.20287,2.09197 -9.54607,5.61065 -6.67725,17.49183 2.80467,11.61547 1.81271,15.75124 -6.90546,28.79087 -6.50269,9.72597 -11.40435,21.31886 -14.25279,33.70913 -1.10917,4.8247 -2.36722,7.40208 -4.88114,10 -4.6854,4.84195 -9.91308,16.67998 -13.55141,30.68704 -2.43391,9.37022 -3.25693,15.22491 -3.98009,28.31296 -1.10529,20.0041 -1.51471,22.5656 -4.00489,25.05578 -2.76796,2.76796 -9.65881,2.6064 -14.04634,-0.32934 -10.16359,-6.80055 -9.80171,-34.81447 0.78444,-60.72644 3.9123,-9.57621 9.07176,-19.32484 13.76051,-26 5.34146,-7.60439 4.97939,-7.76314 -1.80993,-0.7936 -6.8025,6.98306 -14.30948,18.67203 -17.56215,27.34564 -2.97093,7.92235 -7.07252,29.47454 -7.05339,37.06269 0.01,3.7869 0.68455,10.0351 1.5,13.8849 0.81545,3.84979 1.48264,7.29433 1.48264,7.65454 0,0.3602 -2.43787,2.03076 -5.41749,3.71235 -8.23581,4.64801 -9.27466,7.6199 -1.48705,4.2541 14.30135,-6.18103 32.37768,-1.00494 34.55776,9.89549 0.50003,2.50012 1.07356,2.98389 3.53752,2.98389 5.41535,0 9.42824,3.23512 12.40414,10 2.67734,6.08618 2.80532,15.36933 0.45648,33.112 -1.87183,14.13948 -2.0361,17.77154 -1.10788,24.49455 1.94197,14.06539 6.32098,35.39345 7.26688,35.39345 0.50662,0 1.79154,-0.46583 2.85538,-1.03518 2.71929,-1.45532 2.46458,-5.09547 -1.12602,-16.09224 C 209.13783,457.16601 208.87229,441 213.43262,441 c 0.81516,0 2.7388,1.65497 4.27475,3.6777 7.11512,9.37013 12.81,14.49494 19.74354,17.7672 11.58371,5.46688 19.92407,7.0551 37.04909,7.0551 13.56952,0 15.49129,-0.22228 20.15161,-2.33082 2.83339,-1.28195 6.17433,-3.41945 7.42431,-4.75 2.56669,-2.73211 5.50976,-3.04725 8.35524,-0.89467 1.90083,1.43797 1.89808,1.49637 -0.17519,3.7182 -3.82485,4.09895 -7.61251,12.96055 -7.68642,17.98319 -0.0561,3.81017 0.43421,5.22992 2.53028,7.3271 l 2.59983,2.60121 0.57878,-7.32711 c 0.81109,-10.26797 2.31426,-13.74195 12.75255,-29.47241 5.05647,-7.62008 10.18446,-15.87969 11.39552,-18.35469 1.21107,-2.475 5.15414,-9.9 8.76238,-16.5 3.60824,-6.6 8.45648,-15.78135 10.77386,-20.403 7.91566,-15.78651 21.39966,-26.097 34.1295,-26.097 5.42711,0 6.10991,0.27242 10.03041,4.0019 4.37193,4.15892 4.77285,6.23448 0.7141,3.69697 -9.13487,-5.71109 -20.27165,0.82741 -35.20498,20.66916 -6.59722,8.76565 -21.05961,30.39884 -29.83772,44.63197 -19.72425,31.98157 -17.9719,52.12266 4.96281,57.04128 7.10306,1.52333 14.87341,0.19436 35.24313,-6.02769 9.075,-2.77201 26.4,-7.08305 38.5,-9.58009 25.98259,-5.36193 28.80171,-6.13429 31.4725,-8.6225 2.90952,-2.71064 2.52184,-6.45939 -1.58788,-15.35436 -4.77144,-10.32716 -4.77144,-14.64549 0,-25.75456 4.03444,-9.39317 4.66628,-15.46719 1.86538,-17.93231 -1.26958,-1.11738 -4.76975,-1.66262 -12.75,-1.98613 -8.5243,-0.34557 -11.90025,-0.91012 -15,-2.50838 -7.48887,-3.86134 -10.54904,-9.5889 -10.41495,-19.49314 l 0.085,-6.28212 1.28525,5.3099 c 2.45908,10.15946 10.55686,15.80627 24.72356,17.24042 12.93259,1.30921 14.51797,1.74886 16.80891,4.66132 2.56287,3.25816 2.54702,7.53037 -0.0679,18.28836 -2.98496,12.28049 -2.75375,17.90946 1.12959,27.5 4.10057,10.12703 4.37587,16.33028 0.89278,20.11668 -4.50671,4.89916 -8.82927,6.20311 -39.44231,11.89823 -9.5739,1.78109 -21.48546,5.11482 -37.67693,10.5448 -32.93413,11.04478 -36.21074,10.92414 -54.32307,-2.00007 -3.85,-2.7472 -9.7,-5.93965 -13,-7.09433 -8.2229,-2.87722 -29.40915,-4.1964 -60.86764,-3.78999 -28.66602,0.37033 -29.31368,0.53623 -34.66813,8.88042 -5.49355,8.56095 -9.77579,11.12111 -21.69498,12.97043 -7.36542,1.14279 -18.42297,0.02 -22.82584,-2.31779 C 163.1917,513.04377 158.49143,509.35 153.99836,505.5 140.07705,493.57117 129.11684,486.31107 112.5,478.01127 89.790159,466.66813 83.013595,461.08286 83.003738,453.70034 c -0.008,-5.99256 3.730438,-10.07425 15.142644,-16.53299 10.753328,-6.08584 15.858568,-13.82541 18.565718,-28.14572 1.66462,-8.80551 1.7522,-8.98309 3.13178,-6.35007 2.18985,4.17947 1.80252,16.68934 -0.72295,23.34982 -3.12387,8.23867 -6.48212,11.58336 -15.12093,15.05987 -14.190373,5.71063 -18.620333,10.44464 -15.232427,16.27791 2.579116,4.4407 9.944896,8.52099 25.370617,14.05409 17.61506,6.31842 24.35251,9.96497 36.36181,19.68032 5.5,4.44942 12.32777,9.19067 15.17282,10.53611 10.07273,4.76347 20.17154,4.0799 26.89139,-1.8202 7.34713,-6.45087 9.06877,-13.93437 6.92995,-30.12263 -2.09065,-15.82371 -1.92506,-32.31717 0.42355,-42.18685 3.94969,-16.59803 3.57971,-26.48877 -1.26017,-33.68832 -4.30311,-6.40109 -9.11066,-4.18186 -14.9388,6.89595 C 177.66465,412.21492 173.458,415 162.13124,415 c -10.87772,0 -17.93619,-4.55558 -28.44697,-18.35987 -1.54865,-2.03392 -4.54277,-4.78826 -6.65359,-6.12076 -5.59426,-3.5315 -7.51133,-9.77176 -7.37897,-24.01937 0.12525,-13.48186 2.84044,-26.97228 9.05554,-44.99237 8.4412,-24.47447 18.69011,-42.89601 32.27285,-58.00763 20.59192,-22.90977 28.69069,-39.04492 35.13535,-70 1.54904,-7.44037 2.16115,-14.60763 2.39138,-28.00115 0.28382,-16.51039 1.34338,-24.73302 4.1192,-31.9667 0.38384,-1.00026 0.007,-1.53215 -1.08643,-1.53215 -1.12603,0 -1.50411,-0.57311 -1.15448,-1.75 0.28595,-0.9625 0.81428,-3.1 1.17407,-4.75 0.66906,-3.06828 2.98142,-8.62873 6.79478,-16.33917 2.40607,-4.86495 12.80253,-17.022544 19.65285,-22.98198 8.38678,-7.296089 21.54905,-11.313214 37.40739,-11.416746 15.89343,-0.10376 30.4915,3.062402 40.11054,8.699535 7.29177,4.273258 16.89084,16.455938 23.85868,30.280261 2.81933,5.59361 6.01424,7.65843 13.76859,8.8984 2.11639,0.33842 3.84798,1.0078 3.84798,1.48751 0,0.4797 0.60748,0.87219 1.34996,0.87219 2.59427,0 9.61255,6.00618 11.62288,9.94676 2.97516,5.8318 2.60124,8.17324 -2.03893,12.76749 -2.84686,2.81867 -6.89148,5.1677 -13.48861,7.83386 -5.18238,2.09441 -9.64712,3.5834 -9.92164,3.30888 -0.27452,-0.27452 2.08285,-1.56381 5.2386,-2.86508 7.60955,-3.1378 15.83869,-8.45326 17.85793,-11.53499 1.55346,-2.37089 1.50366,-2.6707 -1.05753,-6.3665 -6.26771,-9.04431 -28.65885,-16.60089 -59.82992,-20.19144 -17.93064,-2.06541 -68.44944,0.90252 -79.64272,4.67893 -5.04949,1.7036 -13.50093,6.34452 -12.81073,7.03471 0.23997,0.23997 4.6628,-0.3398 9.82851,-1.28837 7.17857,-1.3182 15.16656,-1.73642 33.8922,-1.77447 13.475,-0.0274 25.85,0.25256 27.5,0.62209 1.65,0.36953 7.5,1.61998 13,2.77878 13.07577,2.75495 17.36075,3.8798 21,5.51271 1.65,0.74034 4.7653,2.0735 6.9229,2.96257 4.57472,1.8851 12.57431,8.17314 12.58326,9.89102 0.003,0.65068 0.67013,2.45607 1.48165,4.01199 1.12054,2.14839 1.3665,5.27578 1.02244,13 -0.24919,5.59408 -0.69984,16.02106 -1.00145,23.17106 -0.30161,7.15 -1.02269,18.45953 -1.6024,25.13229 l -1.05403,12.1323 3.19538,6.3677 c 6.37529,12.70462 23.77459,37.38263 33.05296,46.88013 4.59048,4.6989 18.19635,14.17151 26.54274,18.47946 6.49202,3.35083 14.25072,3.72351 18.07843,0.86839 4.41546,-3.29353 4.00814,-4.82952 -1.92462,-7.25771 -13.3303,-5.45588 -12.74085,-8.57146 1.76524,-9.33022 8.71147,-0.45567 9.79339,-0.73912 12.41755,-3.25323 3.34656,-3.2062 5.72223,-8.27014 4.41432,-9.40946 -0.49191,-0.42849 -3.03553,-1.56708 -5.65251,-2.53018 -8.41227,-3.0959 -11.94589,-12.33888 -7.81374,-20.43858 5.00395,-9.80854 14.6911,-18.86442 24.31813,-22.73342 5.53414,-2.22411 6.15407,-4.57913 2.39041,-9.08074 -4.06357,-4.86032 -6.83785,-11.4539 -7.39238,-17.56934 -0.78379,-8.64378 4.12068,-34.1061 12.51977,-64.99841 l 3.73595,-13.74102 4.75,-0.009 c 2.6125,-0.005 4.75,-0.41077 4.75,-0.90185 0,-1.38803 -18.8311,-15.48615 -31.52982,-23.605175 -29.47598,-18.845692 -62.02464,-31.502585 -96.56659,-37.55095 -19.20125,-3.362176 -32.10807,-4.231779 -54.73714,-3.687942 -24.54451,0.58987 -42.25429,3.134803 -64.2582,9.23404 C 145.65864,79.306374 91.586088,119.27909 55.405112,175.71234 39.623248,200.3281 31.035752,222.9381 25.10099,255.5 c -3.767299,20.66981 -4.555069,31.31677 -4.55039,61.5 0.004,25.5602 0.307228,31.50329 2.270762,44.5 4.234312,28.02709 9.442931,47.13992 19.853721,72.85248 2.482442,6.13114 4.780347,11.82252 5.106455,12.64752 1.543577,3.905 -3.025393,-1.74539 -7.143966,-8.83486 C 27.288582,415.18699 16.938567,381.7126 11.831652,345 9.7793984,330.24676 10.065672,288.58567 12.329834,272.5 23.666976,191.95563 66.765612,122.30028 133.37447,76.869514 167.09777,53.868445 206.85482,38.455923 250.5,31.46374 c 13.54992,-2.170767 52.50504,-3.061117 68,-1.554194 36.72211,3.571316 70.78124,13.659443 103.21261,30.571009 26.23659,13.681252 45.158,27.514071 67.3826,49.261185 l 11.59521,11.3461 6.90479,-1.06167 c 3.79763,-0.58392 8.19838,-1.32676 9.77944,-1.65075 l 2.87465,-0.58909 -0.5588,-7.14316 C 519.38315,106.71443 518.39648,99 517.49788,93.5 c -2.42346,-14.83318 -2.46755,-24.748504 -0.12162,-27.353245 2.02918,-2.253059 33.9758,-23.767603 39.48144,-26.588897 2.11716,-1.084909 4.33394,-1.482325 6,-1.075659 1.45327,0.354723 11.6423,5.665737 22.6423,11.802253 22.60154,12.608614 21.81309,12.426168 35.82061,8.28874 15.82899,-4.675437 14.58374,-3.574833 22.31192,-19.720164 10.96442,-22.906349 12.70339,-26.03951 15.67794,-28.247568 2.63598,-1.9567307 4.34823,-2.1091595 27.57856,-2.4551163 l 24.76808,-0.3688577 3.42145,4.026368 c 1.88179,2.214503 7.42384,11.601168 12.31565,20.859257 4.89182,9.258089 9.75421,18.062301 10.8053,19.564916 1.49955,2.143711 4.21601,3.46189 12.61474,6.121377 18.20884,5.765894 17.17902,5.839453 29.25365,-2.089575 C 799.52666,43.485871 807.45282,39 810.57165,39 c 3.2425,0 14.05982,5.852081 30.83722,16.682691 12.33783,7.964655 15.40342,10.76783 16.12256,14.74247 C 857.83742,72.116322 857.19473,83.625 856.10324,96 l -1.98454,22.5 2.38564,3.41081 c 1.31211,1.87595 5.82335,7.38845 10.02498,12.25 L 874.16865,143 h 22.46534 c 18.40809,0 23.01076,0.28205 25.48542,1.56175 2.4654,1.27491 4.65968,4.8901 11.9472,19.68366 10.30073,20.91031 13.14723,27.99763 12.24243,30.4817 -1.03416,2.83924 -5.96388,9.82573 -17.04889,24.16198 -14.45661,18.69675 -13.6883,16.51125 -11.29468,32.12835 1.10007,7.17736 2.48649,13.95853 3.08093,15.06927 0.59445,1.11073 3.63969,3.6362 6.76721,5.61215 20.05456,12.67039 31.44198,20.84111 32.35285,23.21387 1.11941,2.91597 -0.10677,17.4173 -3.26279,38.58727 -1.75272,11.7569 -2.20753,13.24755 -4.75625,15.58883 -2.58786,2.37723 -9.91367,5.33139 -36.9814,14.91291 -8.0373,2.84507 -9.64792,3.80379 -11.59377,6.90117 C 899.82013,376.8755 893,392.82531 893,395.62759 c 0,1.44366 3.12434,9.4613 6.94299,17.81697 9.55694,20.91176 11.23835,25.4058 10.44633,27.92065 -1.68201,5.34082 -27.67069,36.15214 -33.98113,40.2869 -1.87135,1.22616 -3.69149,1.418 -8.15846,0.85989 -3.16235,-0.39511 -5.97473,-0.72527 -6.24973,-0.73369 -0.275,-0.008 -0.34584,4.47482 -0.15743,9.96275 l 0.34258,9.97805 -7.40628,14.40218 c -4.07345,7.92121 -12.28934,22.49691 -18.25753,32.39045 -12.63561,20.94618 -42.28729,66.25421 -45.39116,69.35808 -2.36261,2.36261 -8.22251,2.84792 -11.63018,0.9632 z M 786.30688,580.5 c 3.44492,-12.17968 7.6399,-40.53358 7.98934,-54 0.25786,-9.93719 0.56312,-11.5083 3.15943,-16.26082 3.48187,-6.37355 10.21266,-12.74372 21.91322,-20.73918 21.26582,-14.53178 25.82338,-18.97968 25.98612,-25.36086 0.25936,-10.17035 -17.25779,-24.2708 -48.57821,-39.10308 C 791.12455,422.35936 783.575,419.39152 780,418.44087 770.60629,415.94292 762.3407,411.28945 756.12603,405 c -9.0939,-9.20333 -18.92491,-22.0768 -21.26811,-27.85007 -2.06807,-5.09539 -2.13968,-6.0107 -1.05341,-13.46361 0.64103,-4.39811 3.21659,-13.88926 5.72347,-21.09144 8.35826,-24.01299 23.73384,-72.94464 27.8388,-88.59488 2.43514,-9.28402 5.01582,-23.95073 4.33419,-24.63236 -0.18831,-0.18832 -3.07705,3.81443 -6.41941,8.89498 -3.34237,5.08056 -15.12987,21.38738 -26.19446,36.23738 -23.99728,32.20722 -39.51705,53.85244 -45.29476,63.17199 -2.32819,3.7554 -4.50423,7.05301 -4.83565,7.32801 -0.33141,0.275 -0.90439,1.175 -1.27327,2 -0.36888,0.825 -1.23605,2.38903 -1.92706,3.47563 -4.95628,7.79375 -8.3722,13.85631 -14.41898,25.59079 C 664.3759,389.57597 656,407.23145 656,408.39593 c 0,0.34423 -0.85592,2.53346 -1.90205,4.86497 -5.82456,12.98121 -14.46358,40.05034 -16.59676,52.00356 -1.44695,8.10799 -1.64794,13.45173 -1.1848,31.5 0.30677,11.95455 1.15079,24.65334 1.87561,28.21954 l 1.31784,6.484 4.16053,-5.984 c 7.13157,-10.25718 9.70572,-13.61689 13.61282,-17.76709 l 3.78318,-4.01858 23.97132,0.55697 c 27.48927,0.6387 24.30726,1.92031 25.46216,-10.2553 1.90538,-20.08751 10.74711,-34.72263 24.28022,-40.1894 5.25984,-2.12474 7.208,-2.3106 24.21993,-2.3106 17.77936,0 27.90036,1.02923 48.34677,4.91652 l 5.84677,1.11159 -10.84677,11.52345 c -15.49132,16.45777 -19.78616,21.69644 -25.276,30.83069 -6.73398,11.2043 -7.88484,18.97738 -6.29998,42.55114 1.76709,26.28422 4.44599,39.12308 9.90505,47.4707 1.96465,3.00421 2.26184,2.5079 5.63104,-9.40409 z M 628,538.38603 c 0,-0.33769 -1.22016,-7.42519 -2.71146,-15.75 -2.41212,-13.46505 -2.71404,-17.61998 -2.73485,-37.63603 -0.0234,-22.49307 -0.0224,-22.50325 3.18384,-33.05441 15.64901,-51.49802 32.93863,-82.03919 94.08055,-166.18818 40.67032,-55.97415 46.61255,-65.30141 52.57115,-82.5187 7.91987,-22.88432 6.12722,-40.25236 -5.37836,-52.10807 C 759.88741,143.7904 756.22269,142.5 742.5,142.5 c -11.39138,0 -12.24585,0.14451 -16.84743,2.84925 -12.67618,7.45088 -20.41947,20.65791 -26.76506,45.65075 -1.6059,6.325 -4.02294,13.765 -5.3712,16.53333 -6.66614,13.68727 -25.92,25.28203 -47.45734,28.57902 l -8.32932,1.27507 0.82298,11.55629 c 1.16159,16.31107 1.12185,21.31722 -0.1727,21.75637 C 635.08841,271.81667 626,249.22677 626,239.92887 c 0,-3.12363 0.10748,-3.00563 -8.5,-9.33186 -8.73158,-6.41743 -10.66756,-8.81102 -11.1494,-13.78474 -0.6076,-6.27192 3.44966,-13.03753 11.27467,-18.80085 6.51093,-4.79548 6.31399,-4.47111 17.00709,-28.01142 16.87745,-37.15485 32.57224,-56.62578 50.86764,-63.10632 12.98088,-4.59804 20.96905,-5.89382 36.31335,-5.89049 23.22039,0.005 39.69976,3.65387 57.41285,12.7122 6.97122,3.56502 10.63592,6.36293 18.22173,13.91184 8.35045,8.30984 10.15131,10.75934 14.93368,20.31261 7.3269,14.6362 8.83666,21.8089 8.33671,39.6068 -0.74613,26.56149 -4.69347,44.11197 -19.66946,87.45336 -9.88482,28.60726 -13.88029,44.41381 -16.95355,67.07025 -3.7242,27.45531 -3.63346,39.87553 0.42158,57.70419 1.57389,6.91986 1.65268,7.03449 5.2904,7.69727 5.11003,0.93104 25.06399,11.5274 34.57901,18.36287 4.68408,3.36499 12.27671,10.5037 18.69886,17.58097 9.91805,10.92979 12.82639,15.13205 15.81738,22.85453 1.20271,3.1053 5.30422,5.11646 8.41855,4.12801 3.26293,-1.03561 20.74711,-19.28339 25.52374,-26.63845 l 4.34482,-6.69017 -7.34482,-12.65353 c -10.81525,-18.6323 -12.75491,-22.58062 -12.80215,-26.05965 -0.0273,-2.00897 3.5809,-10.59549 9.99619,-23.78834 7.86928,-16.18292 10.67803,-21.03332 12.99629,-22.44314 1.62657,-0.98918 7.34658,-2.56379 12.71113,-3.49914 28.56216,-4.98004 27.31155,-4.65018 28.40544,-7.49225 2.71818,-7.06225 4.8785,-18.79642 5.4768,-29.74826 l 0.66182,-12.11484 -17.95759,-9.1826 c -13.81019,-7.06183 -18.36819,-9.87769 -19.73541,-12.1922 -1.7619,-2.98267 -6.34465,-34.35471 -6.86614,-47.00345 l -0.23121,-5.60793 8,-7.3232 c 4.4,-4.02775 11.07971,-10.45181 14.84381,-14.27568 6.07701,-6.17352 6.79092,-7.30166 6.37181,-10.06888 -0.64781,-4.27716 -10.6774,-28.14846 -14.01899,-33.36638 -3.17546,-4.95852 -2.1121,-4.82944 -22.60891,-2.74437 -7.92675,0.80636 -16.25175,1.19214 -18.5,0.85728 -4.99642,-0.74417 -8.90703,-4.29195 -22.69529,-20.58964 -12.58061,-14.87024 -14.89459,-18.316 -14.88331,-22.16282 0.009,-2.97308 2.53722,-13.78146 6.94541,-29.688915 C 847.07954,81.8618 848,77.728512 848,76.736451 c 0,-1.955278 -25.37302,-19.244525 -33.5522,-22.862567 -5.38805,-2.38339 -7.0569,-1.972422 -13.04855,3.213312 -5.38839,4.663618 -19.49941,15.682374 -23.25321,18.157539 -1.45532,0.959605 -3.87264,1.747105 -5.37181,1.75 -3.10525,0.006 -29.44127,-7.891916 -43.83366,-13.145284 C 725.25597,62.504534 723.25655,58.54141 716.90838,40 c -4.88603,-14.270851 -6.03827,-16.727171 -8.52881,-18.181506 -2.5349,-1.480242 -5.25342,-1.611397 -22.71238,-1.095766 -15.09179,0.445721 -20.16885,0.921785 -21.23855,1.991492 -0.77317,0.773163 -3.26651,7.341257 -5.54077,14.595765 -5.66893,18.082964 -8.44377,24.162663 -11.71898,25.676426 -8.80615,4.07009 -44.82405,13.573963 -48.16999,12.71039 -1.3744,-0.354725 -9.17531,-6.056619 -17.33537,-12.670877 C 572.67908,55.743436 565.95344,51 564.61218,51 c -3.9538,0 -29.87134,16.294906 -35.42361,22.271574 l -2.31143,2.488111 5.08322,20.180391 c 2.79577,11.099214 4.82186,20.603284 4.50241,21.120154 -0.31944,0.51687 0.10492,0.93977 0.94303,0.93977 2.53645,0 3.26233,2.75257 5.66979,21.5 1.68753,13.14112 2.32673,23.26379 2.36795,37.5 0.0617,21.31816 0.0723,21.26235 -6.86897,36.18446 -1.96601,4.22645 -3.57457,7.93895 -3.57457,8.25 0,0.31105 7.40917,0.56554 16.46482,0.56554 15.77861,0 16.51234,0.0888 17.60526,2.13095 1.21784,2.27555 0.18904,3.47266 -10.82008,12.5902 -2.3375,1.93588 -4.25,4.11825 -4.25,4.84973 0,3.3204 20.88408,32.13808 35.63644,49.17428 C 598.61803,301.11721 613.24112,316 614.45059,316 c 0.59518,0 2.61105,-2.5875 4.4797,-5.75 6.55238,-11.08921 12.03467,-16.68504 14.21269,-14.50702 1.19036,1.19036 -2.93538,14.33506 -8.85947,28.22647 -8.72942,20.4696 -20.2364,39.17204 -50.66993,82.35445 -20.76047,29.45722 -32.7233,47.68956 -32.0284,48.81392 0.29307,0.4742 1.36639,0.86218 2.38515,0.86218 1.99481,0 39.60769,24.5817 41.97212,27.43066 1.05575,1.2721 1.64818,6.83308 2.27917,21.39412 0.46893,10.82137 1.05536,20.26008 1.30317,20.9749 0.68499,1.97588 9.64961,5.72512 22.97521,9.60884 11.90228,3.46889 15.5,4.16001 15.5,2.97751 z M 740.01338,196.80794 c -6.83938,-3.5182 -10.3622,-9.28939 -10.84081,-17.75973 C 728.48289,166.84263 732.20958,161 740.68452,161 c 9.41792,0 16.34781,7.22467 17.85932,18.61898 1.85297,13.96831 -7.65181,22.78498 -18.53046,17.18896 z M 508.95056,468.02522 c 4.48785,-2.28953 13.31146,-12.49099 31.15948,-36.02522 26.2559,-34.62077 29.92427,-39.9874 29.29384,-42.85528 -1.56764,-7.13131 -3.72127,-12.12266 -5.82549,-13.5014 -5.8591,-3.83903 -22.27368,-32.80095 -36.63752,-64.64332 -3.83013,-8.49081 -4.2869,-8.97132 -8.44087,-8.87953 -1.65,0.0365 -4.575,-0.33169 -6.5,-0.81809 -2.76903,-0.69967 -3.5,-1.38028 -3.5,-3.25885 0,-1.98685 0.7346,-2.55151 4.5,-3.459 5.47075,-1.31849 5.51796,-1.81121 1.54103,-16.08453 -4.51415,-16.20142 -5.46878,-21.5118 -5.5059,-30.62788 -0.0496,-12.19071 3.7799,-20.64341 10.65384,-23.51552 3.25057,-1.35818 3.72336,-3.3566 0.79412,-3.3566 -0.76938,0 -3.21263,-1.72538 -5.42944,-3.83418 -8.32522,-7.91959 -15.39015,-29.39908 -20.60795,-62.65429 l -0.6258,-3.98847 -1.48967,3.48847 c -0.81931,1.91866 -3.72378,10.23847 -6.45437,18.48847 -8.42821,25.46438 -16.84662,40.17418 -24.90098,43.51041 -1.63619,0.67773 -2.97488,1.81583 -2.97488,2.52912 0,0.71329 -0.23682,1.91403 -0.52626,2.6683 -0.34147,0.88987 0.70115,1.81524 2.9694,2.63545 4.38649,1.58617 11.9176,10.07968 13.43841,15.15571 1.60719,5.36431 1.53048,11.75399 -0.29242,24.35776 -3.53321,24.42907 -15.15197,52.21332 -31.51269,75.35709 l -2.97883,4.21385 3.70119,0.62169 c 2.03566,0.34193 9.44164,1.7082 16.45774,3.03615 7.01609,1.32796 12.94795,2.41447 13.1819,2.41447 1.2441,0 5.32954,7.38992 9.30431,16.83001 14.01138,33.27707 13.23709,30.91913 11.76231,35.81943 -0.73505,2.44241 -2.42607,5.88295 -3.7578,7.64565 C 485.99697,414.25901 475,434.47966 475,436.41156 c 0,2.04315 20.47347,27.12174 25.21433,30.88581 4.00161,3.17715 3.94454,3.17239 8.73623,0.72785 z M 607.45262,332.978 c 0.51927,-2.12626 -1.02723,-4.21147 -10.89506,-14.69024 -7.32449,-7.77797 -14.5916,-16.8555 -20.01401,-25 C 571.86098,286.25449 566.73882,278.7 565.16098,276.5 c -1.57784,-2.2 -4.66304,-6.925 -6.85599,-10.5 -10.22623,-16.67101 -11.87631,-18.98286 -13.55499,-18.99125 -1.84966,-0.009 -2.48735,3.41751 -0.82694,4.4437 0.50769,0.31377 1.19391,1.80282 1.52493,3.30902 0.93706,4.26368 10.2874,28.18575 12.09545,30.94517 1.24841,1.90531 2.17596,2.32962 4.05932,1.85693 3.19744,-0.80251 4.27996,1.80355 1.85995,4.47763 -1.72457,1.90563 -1.50316,2.51702 7.12872,19.68486 4.89971,9.74499 12.45677,23.9509 16.79346,31.56871 l 7.8849,13.85056 5.78883,-10.84466 c 3.18385,-5.96456 6.06115,-11.95976 6.394,-13.32267 z M 401,329.96788 c 0,-3.58124 -2.64158,-8.50277 -5.61357,-10.45864 -1.58754,-1.04476 -6.30743,-3.59728 -10.48865,-5.67226 -4.18123,-2.07499 -9.80623,-5.61668 -12.5,-7.87044 -2.69378,-2.25376 -6.11778,-4.74573 -7.60889,-5.53771 -1.49111,-0.79198 -3.89637,-3.46246 -5.34502,-5.9344 -3.05915,-5.22005 -3.92699,-5.66002 -3.11036,-1.57688 1.38438,6.92192 6.50676,12.80774 20.2878,23.31154 7.41152,5.649 15.09562,11.50841 17.07577,13.02091 4.3299,3.30731 7.30292,3.59956 7.30292,0.71788 z m 14.82332,-19.62982 c -0.29523,-1.51755 -11.14927,-6.18878 -14.63234,-6.29728 -2.62513,-0.0818 0.19567,2.22702 6.17949,5.05787 7.00976,3.3162 8.91112,3.59499 8.45285,1.23941 z M 537.12516,298.0164 c 17.01738,-2.16008 18.01462,-2.39856 22.21723,-5.31301 3.73,-2.5867 2.07627,-3.6677 -5.64205,-3.68808 -11.5224,-0.0304 -14.24512,-3.78922 -15.99001,-22.07475 C 537.08364,260.37325 536.30208,255 535.97351,255 c -0.32857,0 -1.61501,1.3764 -2.85876,3.05867 -2.02248,2.73554 -2.1896,3.76554 -1.58194,9.75 1.60856,15.84169 3.94291,22.19133 8.15832,22.19133 0.71988,0 1.30887,0.38883 1.30887,0.86408 0,0.47524 -2.02469,1.14159 -4.49931,1.48077 -2.47462,0.33919 -5.73712,0.8894 -7.25,1.2227 l -2.75069,0.60599 2.86431,-1.58677 c 1.57537,-0.87272 3.60037,-1.60045 4.5,-1.61718 1.44315,-0.0268 1.4297,-0.15039 -0.11431,-1.04969 -0.9625,-0.5606 -1.75,-1.89692 -1.75,-2.96959 0,-2.80189 -1.66909,-2.40491 -2.41696,0.57485 -0.64391,2.56556 -6.00561,5.59721 -15.00818,8.48602 -3.64349,1.16915 -3.79122,1.35744 -2.05887,2.62417 2.48717,1.81866 6.12643,1.72713 24.60917,-0.61895 z m -84.61221,-0.0374 c 0.34704,-0.56152 -1.0889,-1.72963 -3.19098,-2.59579 -4.12168,-1.69833 -13.87882,-7.8572 -14.79423,-9.33837 -0.3082,-0.49867 -0.16337,-1.15204 0.32184,-1.45191 0.48521,-0.29988 0.6779,-1.61397 0.4282,-2.92021 -0.41999,-2.19699 0.49668,-6.70558 2.22076,-10.92276 0.59863,-1.46427 0.15905,-1.75 -2.69229,-1.75 -2.99951,0 -3.66958,0.5091 -5.59373,4.25 -1.2023,2.3375 -2.82417,5.15 -3.60414,6.25 -2.05209,2.89408 -0.41538,6.3886 3.34438,7.14055 1.65131,0.33026 3.57498,1.3055 4.27481,2.1672 1.09795,1.35187 0.99818,1.45512 -0.72757,0.75292 -1.1,-0.44758 -4.925,-0.93845 -8.5,-1.09081 -3.575,-0.15237 -8.525,-0.75942 -11,-1.349 -5.64488,-1.3447 -7,-1.37307 -7,-0.14654 0,1.69172 5.44543,3.88921 19.68562,7.94406 13.79721,3.92872 25.46794,5.26021 26.82733,3.06066 z M 546.5,239.20163 c 4.4,-3.05429 10.475,-7.37309 13.5,-9.59733 l 5.5,-4.04408 -4.37371,-0.74908 c -2.40555,-0.412 -5.14529,-0.33615 -6.08833,0.16854 -0.94304,0.5047 -2.68737,0.66326 -3.87629,0.35235 C 549.97275,225.02112 549,225.19761 549,225.72424 c 0,0.52662 -2.4843,1.51346 -5.52066,2.19297 -8.19046,1.83294 -12.87625,7.86308 -16.10427,20.72455 l -0.68349,2.72322 5.90421,-3.30505 c 3.24732,-1.81778 9.50421,-5.80401 13.90421,-8.8583 z M 209.89433,226.4765 c 3.49468,-3.15723 7.13118,-8.86437 7.09036,-11.12763 -0.008,-0.46688 -0.43713,-1.51597 -0.95267,-2.33131 -0.78209,-1.23687 -1.4494,-0.99186 -4.0285,1.47907 -1.70013,1.62883 -4.98393,3.87092 -7.29733,4.98244 -4.51048,2.16713 -5.68311,4.82701 -3.7338,8.46935 1.60435,2.99774 4.50409,2.51935 8.92194,-1.47192 z M 453.8,220.8 c 0.66,-0.66 1.2,-2.00085 1.2,-2.97968 0,-1.04696 1.54392,-2.57376 3.75,-3.70841 2.0625,-1.06081 4.95469,-3.20746 6.42709,-4.77033 7.68283,-8.15491 19.26636,-35.99454 25.84236,-62.10904 3.17763,-12.61894 4.92736,-15.30715 4.96524,-7.62838 0.0232,4.70195 3.78052,28.72759 6.08285,38.89584 6.70551,29.61494 12.95948,40.5 23.26911,40.5 2.78967,0 3.47095,0.33782 3.02498,1.5 -0.42094,1.09694 0.1249,1.5 2.03138,1.5 1.58815,0 2.60699,-0.55621 2.60699,-1.42322 0,-0.78276 1.75034,-4.72026 3.88964,-8.75 4.91873,-9.26525 6.51987,-17.75372 6.38057,-33.82678 -0.0937,-10.81301 -3.02856,-41.2553 -5.15777,-53.5 l -0.69555,-4 -12.45845,0.2405 c -7.05714,0.13623 -16.11158,1.00332 -20.88463,2 -7.866,1.64252 -8.49006,1.95895 -9.38691,4.7595 -0.52839,1.65 -1.03616,3.09955 -1.12837,3.22123 -0.0922,0.12168 -2.13292,-0.7511 -4.53491,-1.93951 -10.12862,-5.01124 -20.42417,-7.95271 -29.77362,-8.50642 -5.0875,-0.3013 -9.25,-0.28764 -9.25,0.0304 0,0.318 -1.52976,5.66681 -3.39946,11.88626 -1.8697,6.21944 -5.35718,19.63308 -7.74996,29.80808 -3.68314,15.66212 -4.35051,20.11069 -4.35054,29 -3e-5,8.58119 0.3863,11.33512 2.11405,15.06987 2.32724,5.03063 8.78303,11.89157 11.28931,11.99781 1.10878,0.047 0.90914,0.39923 -0.6534,1.15281 -1.2375,0.59683 -2.25,1.46637 -2.25,1.93232 0,1.30252 7.44309,1.0041 8.8,-0.35281 z m 66.59966,-6.22794 c -1.70519,-0.74231 -3.36227,-2.03223 -3.6824,-2.86648 -0.51163,-1.3333 -0.2575,-1.3475 2.10034,-0.11737 3.53024,1.8418 8.51708,1.78379 12.48206,-0.1452 l 3.20034,-1.55698 -3.26578,3.05698 c -3.5558,3.32847 -6.06434,3.70565 -10.83456,1.62905 z m -76.38472,-1.46452 c -3.11503,-2.47035 -2.32217,-3.42724 1.60997,-1.94302 4.38321,1.65448 9.66904,0.26727 14.56366,-3.82207 5.17495,-4.32354 7.43403,-7.54866 13.34411,-19.05039 2.48476,-4.83563 4.21818,-7.44206 3.85204,-5.79206 -0.91505,4.12376 -6.60253,16.01416 -10.37247,21.68496 -5.64262,8.4877 -17.66426,13.1519 -22.99731,8.92258 z M 446.25,154.33772 c -0.6875,-0.27741 -1.25,-1.55951 -1.25,-2.8491 0,-2.1198 0.55154,-2.40093 5.75,-2.93083 11.28626,-1.15045 27.82806,-4.68854 32.5,-6.95135 3.16182,-1.5314 4.75,-1.89115 4.75,-1.07597 0,0.67355 -0.61633,1.73615 -1.36962,2.36133 -3.19181,2.64896 -21.43446,9.14052 -29.69086,10.56534 -4.91723,0.84857 -9.05271,1.50733 -9.18996,1.46391 -0.13726,-0.0434 -0.81206,-0.30592 -1.49956,-0.58333 z M 514,149.02077 c -9.6554,-1.20285 -14.20153,-3.49781 -13.79766,-6.96525 0.34336,-2.94788 0.34879,-2.94763 8.29766,0.38298 7.22446,3.02708 20.05822,3.56182 24.89878,1.03745 3.93575,-2.0525 4.72649,-0.84399 1.34957,2.06257 -4.7559,4.09347 -9.47905,4.88617 -20.74835,3.48225 z m -66.46382,-3.96222 c -0.35982,-0.5822 -0.0652,-1.08892 0.6548,-1.12604 3.06328,-0.15793 7.91387,-0.99387 17.30902,-2.98298 14.88952,-3.15237 15.43342,-3.20506 10,-0.96868 -2.75,1.13189 -8.825,2.72348 -13.5,3.53687 -4.675,0.81338 -9.69466,1.73099 -11.1548,2.03912 -1.46014,0.30814 -2.9492,0.0839 -3.30902,-0.49829 z m 65.51737,-4.5947 c -5.86385,-1.64016 -8.4906,-3.16912 -3.55355,-2.06843 7.51495,1.67542 16.071,1.7794 20.46095,0.24865 5.221,-1.82052 6.2515,-1.4846 2.66156,0.86761 -3.56114,2.33335 -12.99064,2.79216 -19.56896,0.95217 z m -33.491,-6.57325 c -9.92631,-1.44697 -9.25573,-3.02854 0.96448,-2.27474 4.93513,0.36399 9.18494,0.8488 9.44401,1.07734 0.62179,0.54854 -2.19016,2.30612 -3.47104,2.16955 -0.55,-0.0587 -3.67185,-0.49611 -6.93745,-0.97215 z m 22.0743,-4.02138 c -3.87921,-1.5057 -1.39899,-3.03087 2.63942,-1.62307 4.00791,1.39717 20.92956,-0.66834 26.02807,-3.17707 3.42035,-1.68299 3.77322,-1.70524 3.49597,-0.22051 -0.74218,3.97462 -25.07331,7.77265 -32.16346,5.02065 z m -43.03176,-1.4375 C 454.3599,126.87599 452,125.24886 452,123.87756 c 0,-1.49005 3.05778,-0.97154 5.84563,0.99124 1.4599,1.02785 3.6734,2.18524 4.91889,2.572 1.24549,0.38676 2.00643,1.12079 1.69098,1.6312 -0.71408,1.15541 -1.05105,1.11853 -5.85041,-0.64028 z M 674,202.24845 c 3.21055,-1.60385 3.79527,-2.63641 7.07041,-12.48553 1.96373,-5.90539 3.87623,-11.04289 4.25,-11.41667 0.37378,-0.37377 0.67959,-1.35162 0.67959,-2.17301 0,-1.29562 8.91936,-19.93177 12.30573,-25.71163 2.20326,-3.76054 11.09804,-15.92694 14.16158,-19.3704 5.83323,-6.55664 7.06742,-7.73943 11.78514,-11.29431 5.34257,-4.0257 4.83706,-4.80907 -3.08424,-4.77944 -5.43306,0.0203 -20.09685,2.34638 -25.16821,3.99234 -10.21762,3.31622 -18.63241,8.50978 -26.25,16.20133 -4.2625,4.30389 -7.75,8.49207 -7.75,9.30706 0,0.815 -0.37777,1.48181 -0.83948,1.48181 -0.46172,0 -1.34315,1.0125 -1.95874,2.25 -0.61558,1.2375 -2.98797,5.625 -5.27197,9.75 -4.11107,7.42477 -7.4406,15.35562 -10.91531,26 l -1.79539,5.5 14.8496,0.75922 c 13.58699,0.69467 21.0455,1.95991 19.66884,3.33656 -0.29691,0.29691 -5.19682,0.96462 -10.88869,1.48381 -11.8965,1.08514 -20.57907,2.67486 -21.34078,3.90734 -0.759,1.22808 14.99933,4.84654 21.49192,4.93501 3.37169,0.046 6.85438,-0.60163 9,-1.67349 z M 304,172.46862 c 0,-2.21652 0.55851,-3.74571 1.5,-4.10699 1.88185,-0.72214 1.97799,-3.36163 0.12244,-3.36163 -2.15634,0 -3.75368,2.55956 -4.34401,6.96078 C 300.83716,175.25075 301.03932,176 302.36833,176 303.56919,176 304,175.06761 304,172.46862 Z m -58,-1.51637 c 0,-1.12626 1.19553,-3.15573 2.65674,-4.50993 3.09286,-2.86637 2.46535,-4.27461 -1.16724,-2.61949 -2.86934,1.30736 -5.04291,5.29263 -4.15234,7.6134 0.86426,2.25222 2.66284,1.92533 2.66284,-0.48398 z m -26.31574,-57.79678 c 1.20134,-0.63551 3.00134,-1.13304 4,-1.10563 1.04017,0.0286 0.034,0.91444 -2.35567,2.074 -3.91892,1.90164 -6.5068,4.87616 -4.24234,4.87616 0.56292,0 3.5863,-1.72163 6.71862,-3.82585 7.75907,-5.21236 8.19513,-5.43953 8.19513,-4.26922 0,0.56263 -1.67946,2.16419 -3.73213,3.55902 -4.79678,3.25949 -2.79595,3.29291 2.88006,0.0481 5.18817,-2.96593 7.3579,-3.25435 3.85207,-0.51205 -3.42439,2.6786 -1.89465,2.48705 4.00231,-0.50117 3.62625,-1.83756 4.78298,-2.10288 4.35977,-1 -0.7449,1.94116 1.02722,1.94194 2.63792,0.001 0.68469,-0.825 1.69489,-1.5 2.24489,-1.5 0.55,0 0.3824,0.75925 -0.37245,1.68723 -1.46995,1.8071 -1.66313,1.82135 3.5416,-0.26123 1.10824,-0.44345 1.67497,-0.37859 1.34615,0.15406 -0.7058,1.14334 54.21407,1.24665 55.98981,0.10532 0.80903,-0.51999 1.25,-0.25343 1.25,0.7556 0,0.85746 0.45,1.55902 1,1.55902 1.324,0 1.27638,-3.61506 -0.081,-6.15139 -0.59456,-1.11095 -0.85055,-2.25037 -0.56887,-2.53205 0.28168,-0.28169 1.59882,1.62605 2.92697,4.23941 3.0795,6.05946 4.585,4.18133 1.76268,-2.19898 -1.13521,-2.56634 -1.88265,-4.84743 -1.66098,-5.0691 0.70878,-0.70878 4.30153,5.08237 5.55997,8.96211 1.26312,3.89418 3.06125,5.05963 3.06125,1.98413 0,-2.41939 -7.41984,-14.969704 -11.31692,-19.142034 -2.37614,-2.543974 -2.5851,-3.007797 -0.82425,-1.829621 2.47929,1.658882 14.54622,19.042475 16.15414,23.271635 0.51564,1.35624 1.39867,2.46589 1.96228,2.46589 1.57306,0 1.30527,-0.80254 -2.63738,-7.9039 C 312.94559,88.775591 303.91427,81.843299 284,79.36581 282.075,79.126325 278.88061,78.497042 276.90135,77.967402 272.138,76.692752 256.65683,77.5646 251,79.426079 c -11.55869,3.803594 -12.51308,4.329492 -12.22126,6.734326 0.22042,1.816461 0.0216,2.039986 -0.95,1.068334 C 237.15293,86.552933 236.015,86 235.3,86 c -1.52255,0 -1.7623,3.596247 -0.3,4.5 0.55,0.339919 0.96954,1.603976 0.93232,2.809017 l -0.0677,2.190983 -1.0591,-2.191663 c -1.24595,-2.578303 -3.74534,-3.768537 -5.08998,-2.423896 -0.60001,0.600008 0.0142,1.989883 1.66722,3.772564 3.80974,4.108634 3.3362,5.993165 -0.72717,2.893886 -3.80074,-2.898963 -4.94586,-3.11101 -6.52501,-1.208258 -0.88351,1.064572 -0.27719,1.6189 2.92769,2.676604 2.22308,0.733684 4.31823,1.780973 4.65589,2.327303 0.38193,0.61799 -0.10934,0.70296 -1.30014,0.22487 -4.28376,-1.719897 -8.97984,-1.799517 -10.32797,-0.17511 -1.19014,1.43402 -0.81544,1.60532 3.54149,1.61901 2.67984,0.008 5.54744,0.49051 6.37244,1.0713 1.10222,0.77595 0.29674,0.89669 -3.03743,0.45529 -3.16473,-0.41897 -5.50332,-0.11885 -7.73012,0.99203 -3.70049,1.84604 -5.44673,3.95402 -2.60768,3.14786 5.17333,-1.46898 8.469,-1.72489 10.08703,-0.78326 1.45677,0.84777 1.04682,1.04722 -2.2118,1.0761 -3.04902,0.027 -5.16559,0.92579 -8.90271,3.78041 -2.69649,2.05973 -5.29196,4.8182 -5.76771,6.12993 -0.79155,2.18248 -0.50265,2.08955 3.40272,-1.09454 2.34723,-1.91372 5.25062,-3.99946 6.45196,-4.63496 z m 37.88754,-7.34209 c -0.22774,-0.72236 -0.61727,-3.43299 -0.86562,-6.023615 -0.3454,-3.603016 -0.0445,-5.078607 1.28008,-6.277333 1.59571,-1.444097 2.01742,-1.250766 5.37268,2.463116 L 267,100.00576 v -3.336213 c 0,-3.819168 0.60973,-4.756537 2.59777,-3.993657 0.99522,0.381904 1.40223,2.345332 1.40223,6.764432 0,3.424488 -0.31094,6.537278 -0.69097,6.917318 -0.38004,0.38004 -2.85504,-1.44055 -5.5,-4.04574 L 260,97.575184 v 4.153386 c 0,4.04017 -1.59588,6.72481 -2.4282,4.08481 z m 17.98016,-0.35024 c -3.14684,-2.37986 -2.45618,-8.266028 1.37115,-11.685746 1.70964,-1.527567 3.66384,-2.767388 4.34267,-2.755158 2.59161,0.04669 5.80477,3.637659 6.36965,7.11861 1.11452,6.867984 -6.54604,11.510104 -12.08347,7.322294 z M 282.8,102.8 c 3.02569,-3.025691 -0.17225,-9.309137 -3.63382,-7.139884 -2.09736,1.314347 -2.6958,4.996804 -1.1205,6.894924 1.45996,1.75915 3.15291,1.84637 4.75432,0.24496 z m 8.27258,1.56514 c -2.89124,-3.67561 -2.60105,-6.990512 0.92018,-10.511748 2.27551,-2.275511 3.53374,-2.829293 5.25,-2.310682 2.7416,0.828441 3.51668,1.506153 3.93581,3.441404 0.2418,1.116465 -0.66946,1.488049 -3.67857,1.5 -3.31073,0.01315 -4.05225,0.38212 -4.30322,2.14124 -0.16677,1.168945 0.41787,2.846436 1.29919,3.727756 1.29953,1.29953 1.96641,1.37508 3.52826,0.39969 2.77029,-1.73008 4.73344,0.34667 2.46863,2.61149 -2.5364,2.53639 -7.01268,2.06162 -9.42028,-0.99915 z M 297,186.07143 c 0,-0.51072 -0.70714,-1.63572 -1.57143,-2.5 C 294.14589,182.28875 294.11741,182 295.27358,182 c 1.76238,0 4.97139,3.4217 4.06194,4.33115 C 298.36437,187.3023 297,187.15058 297,186.07143 Z M 271.24379,183.75 c 0.22574,-0.6875 1.72574,-1.39477 3.33333,-1.5717 2.81563,-0.3099 2.8495,-0.2652 0.92288,1.2182 -2.42803,1.86945 -4.81921,2.06805 -4.25621,0.3535 z"
       id="path2170" />
  </g>
</svg>
